<svg width="49" height="75" viewBox="0 0 49 75" fill="none" xmlns="http://www.w3.org/2000/svg">
<rect width="84" height="75" rx="10" fill="#DDCEFA" fill-opacity="0.5"/>
<path d="M37.233 27.2635H40.0155L38.6235 23.893L37.233 27.2635ZM32.4375 17.5C31.3932 17.5 30.3917 17.9148 29.6533 18.6533C28.9148 19.3917 28.5 20.3932 28.5 21.4375V40.5625C28.5 42.7375 30.2625 44.5 32.4375 44.5H42.3892C41.3855 42.9332 40.8534 41.1108 40.8562 39.25C40.8562 38.062 41.0685 36.9242 41.4577 35.872H32.4375C32.1889 35.872 31.9504 35.7732 31.7746 35.5974C31.5988 35.4216 31.5 35.1831 31.5 34.9345C31.5 34.6859 31.5988 34.4474 31.7746 34.2716C31.9504 34.0958 32.1889 33.997 32.4375 33.997H42.3915C43.2728 32.6177 44.4873 31.4827 45.9231 30.6967C47.3588 29.9107 48.9695 29.4992 50.6062 29.5C52.3897 29.5 54.0615 29.9792 55.5 30.8155V21.4375C55.5 19.2625 53.7375 17.5 51.5625 17.5H32.4375ZM31.5 39.4375C31.5 38.92 31.92 38.5 32.4375 38.5H38.4435C38.6921 38.5 38.9306 38.5988 39.1064 38.7746C39.2822 38.9504 39.381 39.1889 39.381 39.4375C39.381 39.6861 39.2822 39.9246 39.1064 40.1004C38.9306 40.2762 38.6921 40.375 38.4435 40.375H32.4375C31.92 40.375 31.5 39.955 31.5 39.4375ZM38.6235 20.4985C39.003 20.4985 39.345 20.7272 39.4897 21.0782L43.0537 29.7078C43.1415 29.9361 43.1366 30.1897 43.04 30.4145C42.9433 30.6392 42.7627 30.8173 42.5366 30.9107C42.3104 31.0041 42.0568 31.0054 41.8297 30.9143C41.6026 30.8232 41.4202 30.647 41.3212 30.4233L40.7902 29.1385H36.459L35.9287 30.4233C35.8839 30.54 35.8161 30.6465 35.7294 30.7367C35.6427 30.8268 35.5389 30.8987 35.424 30.9481C35.3091 30.9975 35.1855 31.0234 35.0604 31.0243C34.9354 31.0252 34.8114 31.0011 34.6958 30.9533C34.5802 30.9056 34.4754 30.8352 34.3874 30.7463C34.2994 30.6575 34.2301 30.5519 34.1836 30.4358C34.137 30.3197 34.1142 30.1955 34.1163 30.0705C34.1185 29.9455 34.1457 29.8221 34.1962 29.7078L37.7565 21.0782C37.8274 20.9066 37.9476 20.7599 38.1019 20.6567C38.2563 20.5535 38.4378 20.4984 38.6235 20.4985ZM47.811 20.4985C48.3285 20.4985 48.7485 20.9185 48.7485 21.436V23.5H50.8125C51.0611 23.5 51.2996 23.5988 51.4754 23.7746C51.6512 23.9504 51.75 24.1889 51.75 24.4375C51.75 24.6861 51.6512 24.9246 51.4754 25.1004C51.2996 25.2762 51.0611 25.375 50.8125 25.375H48.7485V27.436C48.7485 27.6846 48.6497 27.9231 48.4739 28.0989C48.2981 28.2747 48.0596 28.3735 47.811 28.3735C47.5624 28.3735 47.3239 28.2747 47.1481 28.0989C46.9723 27.9231 46.8735 27.6846 46.8735 27.436V25.375H44.8125C44.5639 25.375 44.3254 25.2762 44.1496 25.1004C43.9738 24.9246 43.875 24.6861 43.875 24.4375C43.875 24.1889 43.9738 23.9504 44.1496 23.7746C44.3254 23.5988 44.5639 23.5 44.8125 23.5H46.8735V21.436C46.8735 20.9185 47.2935 20.4985 47.811 20.4985ZM58.8562 39.25C58.8562 43.8062 55.1625 47.5 50.6062 47.5C46.05 47.5 42.3562 43.8062 42.3562 39.25C42.3562 34.6938 46.05 31 50.6062 31C55.1625 31 58.8562 34.6938 58.8562 39.25ZM51.3562 34C51.3562 33.8011 51.2772 33.6103 51.1366 33.4697C50.9959 33.329 50.8052 33.25 50.6062 33.25C50.4073 33.25 50.2166 33.329 50.0759 33.4697C49.9353 33.6103 49.8562 33.8011 49.8562 34V38.5H45.3562C45.1573 38.5 44.9666 38.579 44.8259 38.7197C44.6853 38.8603 44.6062 39.0511 44.6062 39.25C44.6062 39.4489 44.6853 39.6397 44.8259 39.7803C44.9666 39.921 45.1573 40 45.3562 40H49.8562V44.5C49.8562 44.6989 49.9353 44.8897 50.0759 45.0303C50.2166 45.171 50.4073 45.25 50.6062 45.25C50.8052 45.25 50.9959 45.171 51.1366 45.0303C51.2772 44.8897 51.3562 44.6989 51.3562 44.5V40H55.8562C56.0552 40 56.2459 39.921 56.3866 39.7803C56.5272 39.6397 56.6062 39.4489 56.6062 39.25C56.6062 39.0511 56.5272 38.8603 56.3866 38.7197C56.2459 38.579 56.0552 38.5 55.8562 38.5H51.3562V34Z" fill="#472B97"/>
<path d="M29.364 57.944H31.156V59H27.996V53.384H29.364V57.944ZM32.4965 54.072C32.2565 54.072 32.0592 54.0027 31.9045 53.864C31.7552 53.72 31.6805 53.544 31.6805 53.336C31.6805 53.1227 31.7552 52.9467 31.9045 52.808C32.0592 52.664 32.2565 52.592 32.4965 52.592C32.7312 52.592 32.9232 52.664 33.0725 52.808C33.2272 52.9467 33.3045 53.1227 33.3045 53.336C33.3045 53.544 33.2272 53.72 33.0725 53.864C32.9232 54.0027 32.7312 54.072 32.4965 54.072ZM33.1765 54.536V59H31.8085V54.536H33.1765ZM35.5359 55.168C35.6639 54.96 35.8479 54.792 36.0879 54.664C36.3279 54.536 36.6025 54.472 36.9119 54.472C37.2799 54.472 37.6132 54.5653 37.9119 54.752C38.2105 54.9387 38.4452 55.2053 38.6159 55.552C38.7919 55.8987 38.8799 56.3013 38.8799 56.76C38.8799 57.2187 38.7919 57.624 38.6159 57.976C38.4452 58.3227 38.2105 58.592 37.9119 58.784C37.6132 58.9707 37.2799 59.064 36.9119 59.064C36.5972 59.064 36.3225 59.0027 36.0879 58.88C35.8532 58.752 35.6692 58.584 35.5359 58.376V59H34.1679V53.08H35.5359V55.168ZM37.4879 56.76C37.4879 56.4187 37.3919 56.152 37.1999 55.96C37.0132 55.7627 36.7812 55.664 36.5039 55.664C36.2319 55.664 35.9999 55.7627 35.8079 55.96C35.6212 56.1573 35.5279 56.4267 35.5279 56.768C35.5279 57.1093 35.6212 57.3787 35.8079 57.576C35.9999 57.7733 36.2319 57.872 36.5039 57.872C36.7759 57.872 37.0079 57.7733 37.1999 57.576C37.3919 57.3733 37.4879 57.1013 37.4879 56.76ZM40.9656 55.28C41.1256 55.0347 41.3256 54.8427 41.5656 54.704C41.8056 54.56 42.0722 54.488 42.3656 54.488V55.936H41.9896C41.6482 55.936 41.3922 56.0107 41.2216 56.16C41.0509 56.304 40.9656 56.56 40.9656 56.928V59H39.5976V54.536H40.9656V55.28ZM42.7474 56.76C42.7474 56.3013 42.8328 55.8987 43.0034 55.552C43.1794 55.2053 43.4168 54.9387 43.7154 54.752C44.0141 54.5653 44.3474 54.472 44.7154 54.472C45.0301 54.472 45.3048 54.536 45.5394 54.664C45.7794 54.792 45.9634 54.96 46.0914 55.168V54.536H47.4594V59H46.0914V58.368C45.9581 58.576 45.7714 58.744 45.5314 58.872C45.2968 59 45.0221 59.064 44.7074 59.064C44.3448 59.064 44.0141 58.9707 43.7154 58.784C43.4168 58.592 43.1794 58.3227 43.0034 57.976C42.8328 57.624 42.7474 57.2187 42.7474 56.76ZM46.0914 56.768C46.0914 56.4267 45.9954 56.1573 45.8034 55.96C45.6168 55.7627 45.3874 55.664 45.1154 55.664C44.8434 55.664 44.6114 55.7627 44.4194 55.96C44.2328 56.152 44.1394 56.4187 44.1394 56.76C44.1394 57.1013 44.2328 57.3733 44.4194 57.576C44.6114 57.7733 44.8434 57.872 45.1154 57.872C45.3874 57.872 45.6168 57.7733 45.8034 57.576C45.9954 57.3787 46.0914 57.1093 46.0914 56.768ZM49.8171 55.28C49.9771 55.0347 50.1771 54.8427 50.4171 54.704C50.6571 54.56 50.9238 54.488 51.2171 54.488V55.936H50.8411C50.4998 55.936 50.2438 56.0107 50.0731 56.16C49.9025 56.304 49.8171 56.56 49.8171 56.928V59H48.4491V54.536H49.8171V55.28ZM56.431 54.536L53.631 61.12H52.159L53.183 58.848L51.367 54.536H52.895L53.927 57.328L54.951 54.536H56.431Z" fill="#472B97"/>
</svg>
