<svg width="12" height="12" viewBox="0 0 12 12" fill="none" xmlns="http://www.w3.org/2000/svg">
<path d="M6 11.375C3.035 11.375 0.625 8.965 0.625 6C0.625 3.035 3.035 0.625 6 0.625C8.965 0.625 11.375 3.035 11.375 6C11.375 8.965 8.965 11.375 6 11.375ZM6 1.375C3.45 1.375 1.375 3.45 1.375 6C1.375 8.55 3.45 10.625 6 10.625C8.55 10.625 10.625 8.55 10.625 6C10.625 3.45 8.55 1.375 6 1.375Z" fill="white"/>
<path d="M7.85482 7.96586C7.78982 7.96586 7.72482 7.95086 7.66482 7.91086L6.11482 6.98586C5.72982 6.75586 5.44482 6.25086 5.44482 5.80586V3.75586C5.44482 3.55086 5.61482 3.38086 5.81982 3.38086C6.02482 3.38086 6.19482 3.55086 6.19482 3.75586V5.80586C6.19482 5.98586 6.34482 6.25086 6.49982 6.34086L8.04982 7.26586C8.22982 7.37086 8.28482 7.60086 8.17982 7.78086C8.10482 7.90086 7.97982 7.96586 7.85482 7.96586Z" fill="white"/>
</svg>
