<svg width="53" height="34" viewBox="0 0 53 34" fill="none" xmlns="http://www.w3.org/2000/svg">
<path d="M26.4989 30.5082C26.0895 30.5082 25.6801 30.4127 25.339 30.2216C22.7872 28.8298 18.2977 27.356 15.4867 26.9876L15.0909 26.933C13.3033 26.7147 11.8296 25.0362 11.8296 23.2213V6.73717C11.8296 5.65915 12.2526 4.67665 13.0304 3.96706C13.8082 3.25748 14.818 2.91633 15.8824 3.01186C18.8845 3.24383 23.4149 4.74488 25.9803 6.35508L26.3078 6.54613C26.4033 6.60071 26.608 6.60071 26.6899 6.55977L26.9082 6.42331C29.4737 4.81311 34.0041 3.28477 37.0198 3.0255C37.0471 3.0255 37.1563 3.0255 37.1836 3.0255C38.1797 2.92998 39.2031 3.28477 39.9673 3.99436C40.7451 4.70394 41.1681 5.68644 41.1681 6.76446V23.235C41.1681 25.0635 39.6944 26.7283 37.8931 26.9466L37.4428 27.0012C34.6318 27.3697 30.1287 28.8571 27.6315 30.2353C27.304 30.4263 26.9082 30.5082 26.4989 30.5082ZM15.5549 5.04508C15.1182 5.04508 14.7225 5.19519 14.4087 5.48175C14.0675 5.79561 13.8765 6.24592 13.8765 6.73717V23.2213C13.8765 24.0264 14.5724 24.8043 15.3502 24.9134L15.7596 24.968C18.8299 25.3774 23.5377 26.9194 26.2669 28.4068C26.3897 28.4613 26.5671 28.475 26.6353 28.4477C29.3645 26.933 34.0996 25.3774 37.1836 24.968L37.6475 24.9134C38.4253 24.8179 39.1213 24.0264 39.1213 23.2213V6.75081C39.1213 6.24592 38.9302 5.80925 38.5891 5.48175C38.2343 5.1679 37.784 5.01779 37.2791 5.04508C37.2518 5.04508 37.1426 5.04508 37.1153 5.04508C34.509 5.27706 30.306 6.68258 28.0135 8.1154L27.7952 8.2655C27.0447 8.72946 25.9803 8.72946 25.2571 8.27915L24.9296 8.08811C22.5962 6.65529 18.3932 5.26342 15.7187 5.04508C15.6641 5.04508 15.6095 5.04508 15.5549 5.04508Z" fill="#808080"/>
<path d="M26.5 29.3613C25.9405 29.3613 25.4766 28.8974 25.4766 28.3379V7.86914C25.4766 7.30966 25.9405 6.8457 26.5 6.8457C27.0595 6.8457 27.5234 7.30966 27.5234 7.86914V28.3379C27.5234 28.911 27.0595 29.3613 26.5 29.3613Z" fill="#808080"/>
<path d="M20.7017 12.9863H17.6313C17.0719 12.9863 16.6079 12.5224 16.6079 11.9629C16.6079 11.4034 17.0719 10.9395 17.6313 10.9395H20.7017C21.2611 10.9395 21.7251 11.4034 21.7251 11.9629C21.7251 12.5224 21.2611 12.9863 20.7017 12.9863Z" fill="#808080"/>
<path d="M21.7251 17.0801H17.6313C17.0719 17.0801 16.6079 16.6161 16.6079 16.0566C16.6079 15.4972 17.0719 15.0332 17.6313 15.0332H21.7251C22.2846 15.0332 22.7485 15.4972 22.7485 16.0566C22.7485 16.6161 22.2846 17.0801 21.7251 17.0801Z" fill="#8A8A8A"/>
</svg>
