<svg width="41" height="34" viewBox="0 0 41 34" fill="none" xmlns="http://www.w3.org/2000/svg">
<path d="M20.4481 30.5121C20.0387 30.5121 19.6293 30.4166 19.2882 30.2256C16.7364 28.8337 12.2469 27.3599 9.43589 26.9915L9.04016 26.9369C7.25256 26.7186 5.77881 25.0401 5.77881 23.2252V6.74107C5.77881 5.66305 6.20183 4.68055 6.97964 3.97097C7.75745 3.26139 8.76725 2.92024 9.83162 3.01576C12.8337 3.24774 17.3641 4.74878 19.9295 6.35899L20.257 6.55003C20.3526 6.60462 20.5572 6.60462 20.6391 6.56368L20.8575 6.42722C23.4229 4.81701 27.9533 3.28868 30.969 3.02941C30.9963 3.02941 31.1055 3.02941 31.1328 3.02941C32.1289 2.93389 33.1524 3.28868 33.9165 3.99826C34.6943 4.70785 35.1174 5.69034 35.1174 6.76837V23.2389C35.1174 25.0674 33.6436 26.7322 31.8424 26.9506L31.392 27.0051C28.581 27.3736 24.0779 28.861 21.5807 30.2392C21.2532 30.4302 20.8575 30.5121 20.4481 30.5121ZM9.50412 5.04899C9.06745 5.04899 8.67173 5.1991 8.35787 5.48566C8.01673 5.79951 7.82568 6.24982 7.82568 6.74107V23.2252C7.82568 24.0303 8.52162 24.8082 9.29943 24.9173L9.70881 24.9719C12.7791 25.3813 17.4869 26.9233 20.2161 28.4107C20.3389 28.4652 20.5163 28.4789 20.5845 28.4516C23.3137 26.9369 28.0488 25.3813 31.1328 24.9719L31.5967 24.9173C32.3745 24.8218 33.0705 24.0303 33.0705 23.2252V6.75472C33.0705 6.24982 32.8794 5.81316 32.5383 5.48566C32.1835 5.1718 31.7332 5.0217 31.2283 5.04899C31.201 5.04899 31.0918 5.04899 31.0645 5.04899C28.4582 5.28097 24.2553 6.68649 21.9628 8.1193L21.7444 8.26941C20.9939 8.73337 19.9295 8.73337 19.2063 8.28305L18.8788 8.09201C16.5454 6.6592 12.3425 5.26732 9.66787 5.04899C9.61329 5.04899 9.5587 5.04899 9.50412 5.04899Z" fill="#808080"/>
<path d="M20.4492 29.3652C19.8897 29.3652 19.4258 28.9013 19.4258 28.3418V7.87305C19.4258 7.31357 19.8897 6.84961 20.4492 6.84961C21.0087 6.84961 21.4727 7.31357 21.4727 7.87305V28.3418C21.4727 28.9149 21.0087 29.3652 20.4492 29.3652Z" fill="#808080"/>
<path d="M14.6509 12.9902H11.5806C11.0211 12.9902 10.5571 12.5263 10.5571 11.9668C10.5571 11.4073 11.0211 10.9434 11.5806 10.9434H14.6509C15.2104 10.9434 15.6743 11.4073 15.6743 11.9668C15.6743 12.5263 15.2104 12.9902 14.6509 12.9902Z" fill="#808080"/>
<path d="M15.6743 17.084H11.5806C11.0211 17.084 10.5571 16.62 10.5571 16.0605C10.5571 15.5011 11.0211 15.0371 11.5806 15.0371H15.6743C16.2338 15.0371 16.6978 15.5011 16.6978 16.0605C16.6978 16.62 16.2338 17.084 15.6743 17.084Z" fill="#808080"/>
</svg>
