<svg width="20" height="20" viewBox="0 0 20 20" fill="none" xmlns="http://www.w3.org/2000/svg">
<path d="M12.5 18.9577H7.49999C2.97499 18.9577 1.04166 17.0243 1.04166 12.4993V7.49935C1.04166 2.97435 2.97499 1.04102 7.49999 1.04102H9.16666C9.50832 1.04102 9.79166 1.32435 9.79166 1.66602C9.79166 2.00768 9.50832 2.29102 9.16666 2.29102H7.49999C3.65832 2.29102 2.29166 3.65768 2.29166 7.49935V12.4993C2.29166 16.341 3.65832 17.7077 7.49999 17.7077H12.5C16.3417 17.7077 17.7083 16.341 17.7083 12.4993V10.8327C17.7083 10.491 17.9917 10.2077 18.3333 10.2077C18.675 10.2077 18.9583 10.491 18.9583 10.8327V12.4993C18.9583 17.0243 17.025 18.9577 12.5 18.9577Z" fill="#EEEEEE"/>
<path d="M7.08333 14.7424C6.575 14.7424 6.10833 14.5591 5.76666 14.2258C5.35833 13.8174 5.18333 13.2258 5.275 12.6008L5.63333 10.0924C5.7 9.60911 6.01666 8.98411 6.35833 8.64245L12.925 2.07578C14.5833 0.417448 16.2667 0.417448 17.925 2.07578C18.8333 2.98411 19.2417 3.90911 19.1583 4.83411C19.0833 5.58411 18.6833 6.31745 17.925 7.06745L11.3583 13.6341C11.0167 13.9758 10.3917 14.2924 9.90833 14.3591L7.4 14.7174C7.29166 14.7424 7.18333 14.7424 7.08333 14.7424ZM13.8083 2.95911L7.24166 9.52578C7.08333 9.68411 6.89999 10.0508 6.86666 10.2674L6.50833 12.7758C6.47499 13.0174 6.525 13.2174 6.65 13.3424C6.775 13.4674 6.97499 13.5174 7.21666 13.4841L9.725 13.1258C9.94166 13.0924 10.3167 12.9091 10.4667 12.7508L17.0333 6.18411C17.575 5.64245 17.8583 5.15911 17.9 4.70911C17.95 4.16745 17.6667 3.59245 17.0333 2.95078C15.7 1.61745 14.7833 1.99245 13.8083 2.95911Z" fill="#EEEEEE"/>
<path d="M16.5417 8.19124C16.4833 8.19124 16.425 8.18291 16.375 8.16624C14.1833 7.54957 12.4417 5.80791 11.825 3.61624C11.7333 3.28291 11.925 2.94124 12.2583 2.84124C12.5917 2.74957 12.9333 2.94124 13.025 3.27457C13.525 5.04957 14.9333 6.45791 16.7083 6.95791C17.0417 7.04957 17.2333 7.39957 17.1417 7.73291C17.0667 8.01624 16.8167 8.19124 16.5417 8.19124Z" fill="#EEEEEE"/>
</svg>
