<svg width="24" height="24" viewBox="0 0 24 24" fill="none" xmlns="http://www.w3.org/2000/svg">
<path d="M7.20021 0L6.40021 0.857143V3.47486C6.93196 3.41256 7.46846 3.41256 8.00021 3.47486V1.71429H22.4002V10.2857H19.669L17.6002 12.5023V10.2857H14.357C14.4152 10.8554 14.4152 11.4303 14.357 12H16.0002V14.5714L17.3666 15.1783L20.3314 12H23.2002L24.0002 11.1429V0.857143L23.2002 0H7.20021Z" fill="#3E238B"/>
<path fill-rule="evenodd" clip-rule="evenodd" d="M10.267 16.1645C11.276 15.4569 12.0447 14.4191 12.459 13.2057C12.8733 11.9923 12.9109 10.668 12.5663 9.42988C12.2217 8.19172 11.5132 7.10583 10.5463 6.33372C9.57942 5.5616 8.40572 5.14453 7.19982 5.14453C5.99391 5.14453 4.82022 5.5616 3.85332 6.33372C2.88642 7.10583 2.17797 8.19172 1.83335 9.42988C1.48874 10.668 1.52636 11.9923 1.94063 13.2057C2.3549 14.4191 3.12368 15.4569 4.13262 16.1645C2.89684 16.788 1.85208 17.7752 1.12029 19.0109C0.388509 20.2466 -0.000105937 21.6799 -0.000183105 23.1434L-0.000183105 24.0005H1.59982V23.1434C1.64893 21.5872 2.26043 20.1123 3.30527 19.0301C4.35011 17.9478 5.74654 17.3428 7.19982 17.3428C8.65309 17.3428 10.0495 17.9478 11.0944 19.0301C12.1392 20.1123 12.7507 21.5872 12.7998 23.1434V24.0005H14.3998V23.1434C14.3997 21.6799 14.0111 20.2466 13.2793 19.0109C12.5476 17.7752 11.5028 16.788 10.267 16.1645ZM7.19982 15.4291C6.13895 15.4291 5.12153 14.9776 4.37139 14.1738C3.62124 13.3701 3.19982 12.28 3.19982 11.1434C3.19982 10.0067 3.62124 8.91665 4.37139 8.11292C5.12153 7.3092 6.13895 6.85767 7.19982 6.85767C8.26068 6.85767 9.2781 7.3092 10.0282 8.11292C10.7784 8.91665 11.1998 10.0067 11.1998 11.1434C11.1998 12.28 10.7784 13.3701 10.0282 14.1738C9.2781 14.9776 8.26068 15.4291 7.19982 15.4291Z" fill="#3E238B"/>
</svg>
