<svg width="54" height="34" viewBox="0 0 54 34" fill="none" xmlns="http://www.w3.org/2000/svg">
<g clip-path="url(#clip0_993_4574)">
<path d="M27.0508 3.44531C27.616 3.44531 28.0742 3.90352 28.0742 4.46875V9.58594H33.1914C38.7479 9.58594 43.2701 14.014 43.4218 19.5338L43.4258 19.8203C43.4258 25.3768 38.9977 29.8991 33.4779 30.0508L33.1914 30.0547H20.9102C15.2579 30.0547 10.6758 25.4726 10.6758 19.8203C10.6758 14.2638 15.1039 9.74157 20.6237 9.58987L20.9102 9.58594H26.0273V4.46875C26.0273 3.90352 26.4856 3.44531 27.0508 3.44531ZM33.1914 11.6328H20.9102C16.3883 11.6328 12.7227 15.2985 12.7227 19.8203C12.7227 24.2568 16.2513 27.8692 20.6551 28.0039L20.9102 28.0078H33.1914C37.7132 28.0078 41.3789 24.3421 41.3789 19.8203C41.3789 15.2985 37.7132 11.6328 33.1914 11.6328ZM20.9102 15.7266C21.4754 15.7266 21.9336 16.1848 21.9336 16.75V18.7969H23.9805C24.5457 18.7969 25.0039 19.2551 25.0039 19.8203C25.0039 20.3855 24.5457 20.8438 23.9805 20.8438H21.9336V22.8906C21.9336 23.4559 21.4754 23.9141 20.9102 23.9141C20.3449 23.9141 19.8867 23.4559 19.8867 22.8906V20.8438H17.8398C17.2746 20.8438 16.8164 20.3855 16.8164 19.8203C16.8164 19.2551 17.2746 18.7969 17.8398 18.7969H19.8867V16.75C19.8867 16.1848 20.3449 15.7266 20.9102 15.7266ZM35.75 20.8438C36.5978 20.8438 37.2852 21.5311 37.2852 22.3789C37.2852 23.2267 36.5978 23.9141 35.75 23.9141C34.9022 23.9141 34.2148 23.2267 34.2148 22.3789C34.2148 21.5311 34.9022 20.8438 35.75 20.8438ZM33.7031 15.7266C34.551 15.7266 35.2383 16.4139 35.2383 17.2617C35.2383 18.1096 34.551 18.7969 33.7031 18.7969C32.8553 18.7969 32.168 18.1096 32.168 17.2617C32.168 16.4139 32.8553 15.7266 33.7031 15.7266Z" fill="#7933EB"/>
</g>
<defs>
<clipPath id="clip0_993_4574">
<rect width="32.75" height="32.75" fill="white" transform="translate(10.6753 0.375)"/>
</clipPath>
</defs>
</svg>
