<svg width="84" height="75" viewBox="0 0 84 75" fill="none" xmlns="http://www.w3.org/2000/svg">
<rect width="84" height="75" rx="10" fill="#DDCEFA" fill-opacity="0.5"/>
<path d="M57.9701 30.2533C56.4788 23.511 54.2344 19.9124 50.9051 18.9295C50.2053 18.7242 49.4793 18.6216 48.75 18.625C47.786 18.625 46.9465 18.8598 46.0585 19.1088C44.9883 19.409 43.7726 19.75 42 19.75C40.2274 19.75 39.011 19.4097 37.9388 19.1095C37.05 18.8598 36.2112 18.625 35.25 18.625C34.4959 18.6224 33.745 18.7246 33.019 18.9288C29.7073 19.9075 27.4643 23.5047 25.9512 30.2491C24.3242 37.5067 25.125 42.089 28.197 43.1521C28.6181 43.3006 29.0611 43.3771 29.5076 43.3785C31.6121 43.3785 33.2996 41.6256 34.4527 40.1906C35.7556 38.5663 37.2806 37.7423 42 37.7423C46.2153 37.7423 47.9597 38.3139 49.4665 40.1906C50.4136 41.3704 51.3087 42.1959 52.2017 42.7155C53.3892 43.4059 54.5761 43.5592 55.7285 43.1634C57.544 42.5439 58.5846 40.9063 58.8223 38.2949C59.003 36.2924 58.7246 33.662 57.9701 30.2533ZM38.625 29.875H36.375V32.125C36.375 32.4234 36.2565 32.7095 36.0455 32.9205C35.8345 33.1315 35.5484 33.25 35.25 33.25C34.9517 33.25 34.6655 33.1315 34.4545 32.9205C34.2435 32.7095 34.125 32.4234 34.125 32.125V29.875H31.875C31.5767 29.875 31.2905 29.7565 31.0795 29.5455C30.8685 29.3345 30.75 29.0484 30.75 28.75C30.75 28.4516 30.8685 28.1655 31.0795 27.9545C31.2905 27.7435 31.5767 27.625 31.875 27.625H34.125V25.375C34.125 25.0766 34.2435 24.7905 34.4545 24.5795C34.6655 24.3685 34.9517 24.25 35.25 24.25C35.5484 24.25 35.8345 24.3685 36.0455 24.5795C36.2565 24.7905 36.375 25.0766 36.375 25.375V27.625H38.625C38.9234 27.625 39.2095 27.7435 39.4205 27.9545C39.6315 28.1655 39.75 28.4516 39.75 28.75C39.75 29.0484 39.6315 29.3345 39.4205 29.5455C39.2095 29.7565 38.9234 29.875 38.625 29.875ZM44.5313 30.1563C44.2531 30.1563 43.9813 30.0738 43.75 29.9193C43.5187 29.7647 43.3385 29.5451 43.2321 29.2882C43.1256 29.0312 43.0978 28.7484 43.152 28.4757C43.2063 28.2029 43.3402 27.9523 43.5369 27.7556C43.7336 27.559 43.9841 27.425 44.2569 27.3708C44.5297 27.3165 44.8125 27.3444 45.0694 27.4508C45.3264 27.5572 45.546 27.7375 45.7005 27.9687C45.855 28.2 45.9375 28.4719 45.9375 28.75C45.9375 29.123 45.7894 29.4807 45.5256 29.7444C45.2619 30.0081 44.9042 30.1563 44.5313 30.1563ZM47.625 33.25C47.3467 33.25 47.0747 33.1674 46.8434 33.0128C46.6121 32.8581 46.4318 32.6383 46.3255 32.3811C46.2192 32.1239 46.1915 31.841 46.2461 31.5681C46.3006 31.2952 46.4349 31.0447 46.6319 30.8481C46.8289 30.6516 47.0798 30.518 47.3528 30.4641C47.6259 30.4102 47.9087 30.4386 48.1656 30.5456C48.4225 30.6525 48.6419 30.8333 48.796 31.065C48.9501 31.2968 49.032 31.569 49.0313 31.8473C49.0303 32.2196 48.8818 32.5764 48.6182 32.8394C48.3545 33.1023 47.9974 33.25 47.625 33.25ZM47.625 27.0625C47.3469 27.0625 47.075 26.98 46.8438 26.8255C46.6125 26.671 46.4323 26.4514 46.3258 26.1944C46.2194 25.9374 46.1915 25.6547 46.2458 25.3819C46.3001 25.1091 46.434 24.8586 46.6307 24.6619C46.8273 24.4652 47.0779 24.3313 47.3507 24.277C47.6235 24.2228 47.9062 24.2506 48.1632 24.3571C48.4201 24.4635 48.6398 24.6437 48.7943 24.875C48.9488 25.1062 49.0313 25.3781 49.0313 25.6563C49.0313 26.0292 48.8831 26.3869 48.6194 26.6506C48.3557 26.9143 47.998 27.0625 47.625 27.0625ZM50.7188 30.1563C50.4406 30.1563 50.1688 30.0738 49.9375 29.9193C49.7062 29.7647 49.526 29.5451 49.4196 29.2882C49.3131 29.0312 49.2853 28.7484 49.3395 28.4757C49.3938 28.2029 49.5277 27.9523 49.7244 27.7556C49.9211 27.559 50.1716 27.425 50.4444 27.3708C50.7172 27.3165 51 27.3444 51.2569 27.4508C51.5139 27.5572 51.7335 27.7375 51.888 27.9687C52.0425 28.2 52.125 28.4719 52.125 28.75C52.125 29.123 51.9769 29.4807 51.7131 29.7444C51.4494 30.0081 51.0917 30.1563 50.7188 30.1563Z" fill="#472B97"/>
<path d="M33.724 55.16C33.6227 54.9733 33.476 54.832 33.284 54.736C33.0973 54.6347 32.876 54.584 32.62 54.584C32.1773 54.584 31.8227 54.7307 31.556 55.024C31.2893 55.312 31.156 55.6987 31.156 56.184C31.156 56.7013 31.2947 57.1067 31.572 57.4C31.8547 57.688 32.2413 57.832 32.732 57.832C33.068 57.832 33.3507 57.7467 33.58 57.576C33.8147 57.4053 33.9853 57.16 34.092 56.84H32.356V55.832H35.332V57.104C35.2307 57.4453 35.0573 57.7627 34.812 58.056C34.572 58.3493 34.2653 58.5867 33.892 58.768C33.5187 58.9493 33.0973 59.04 32.628 59.04C32.0733 59.04 31.5773 58.92 31.14 58.68C30.708 58.4347 30.3693 58.096 30.124 57.664C29.884 57.232 29.764 56.7387 29.764 56.184C29.764 55.6293 29.884 55.136 30.124 54.704C30.3693 54.2667 30.708 53.928 31.14 53.688C31.572 53.4427 32.0653 53.32 32.62 53.32C33.292 53.32 33.8573 53.4827 34.316 53.808C34.78 54.1333 35.0867 54.584 35.236 55.16H33.724ZM35.8178 56.76C35.8178 56.3013 35.9031 55.8987 36.0738 55.552C36.2498 55.2053 36.4871 54.9387 36.7858 54.752C37.0844 54.5653 37.4178 54.472 37.7858 54.472C38.1004 54.472 38.3751 54.536 38.6098 54.664C38.8498 54.792 39.0338 54.96 39.1618 55.168V54.536H40.5298V59H39.1618V58.368C39.0284 58.576 38.8418 58.744 38.6018 58.872C38.3671 59 38.0924 59.064 37.7778 59.064C37.4151 59.064 37.0844 58.9707 36.7858 58.784C36.4871 58.592 36.2498 58.3227 36.0738 57.976C35.9031 57.624 35.8178 57.2187 35.8178 56.76ZM39.1618 56.768C39.1618 56.4267 39.0658 56.1573 38.8738 55.96C38.6871 55.7627 38.4578 55.664 38.1858 55.664C37.9138 55.664 37.6818 55.7627 37.4898 55.96C37.3031 56.152 37.2098 56.4187 37.2098 56.76C37.2098 57.1013 37.3031 57.3733 37.4898 57.576C37.6818 57.7733 37.9138 57.872 38.1858 57.872C38.4578 57.872 38.6871 57.7733 38.8738 57.576C39.0658 57.3787 39.1618 57.1093 39.1618 56.768ZM47.2154 54.488C47.7701 54.488 48.2101 54.656 48.5354 54.992C48.8661 55.328 49.0314 55.7947 49.0314 56.392V59H47.6714V56.576C47.6714 56.288 47.5941 56.0667 47.4394 55.912C47.2901 55.752 47.0821 55.672 46.8154 55.672C46.5488 55.672 46.3381 55.752 46.1834 55.912C46.0341 56.0667 45.9594 56.288 45.9594 56.576V59H44.5994V56.576C44.5994 56.288 44.5221 56.0667 44.3674 55.912C44.2181 55.752 44.0101 55.672 43.7434 55.672C43.4768 55.672 43.2661 55.752 43.1114 55.912C42.9621 56.0667 42.8874 56.288 42.8874 56.576V59H41.5194V54.536H42.8874V55.096C43.0261 54.9093 43.2074 54.7627 43.4314 54.656C43.6554 54.544 43.9088 54.488 44.1914 54.488C44.5274 54.488 44.8261 54.56 45.0874 54.704C45.3541 54.848 45.5621 55.0533 45.7114 55.32C45.8661 55.0747 46.0768 54.8747 46.3434 54.72C46.6101 54.5653 46.9008 54.488 47.2154 54.488ZM54.1962 56.696C54.1962 56.824 54.1882 56.9573 54.1722 57.096H51.0762C51.0975 57.3733 51.1855 57.5867 51.3402 57.736C51.5002 57.88 51.6949 57.952 51.9242 57.952C52.2655 57.952 52.5029 57.808 52.6362 57.52H54.0922C54.0175 57.8133 53.8815 58.0773 53.6842 58.312C53.4922 58.5467 53.2495 58.7307 52.9562 58.864C52.6629 58.9973 52.3349 59.064 51.9722 59.064C51.5349 59.064 51.1455 58.9707 50.8042 58.784C50.4629 58.5973 50.1962 58.3307 50.0042 57.984C49.8122 57.6373 49.7162 57.232 49.7162 56.768C49.7162 56.304 49.8095 55.8987 49.9962 55.552C50.1882 55.2053 50.4549 54.9387 50.7962 54.752C51.1375 54.5653 51.5295 54.472 51.9722 54.472C52.4042 54.472 52.7882 54.5627 53.1242 54.744C53.4602 54.9253 53.7215 55.184 53.9082 55.52C54.1002 55.856 54.1962 56.248 54.1962 56.696ZM52.7962 56.336C52.7962 56.1013 52.7162 55.9147 52.5562 55.776C52.3962 55.6373 52.1962 55.568 51.9562 55.568C51.7269 55.568 51.5322 55.6347 51.3722 55.768C51.2175 55.9013 51.1215 56.0907 51.0842 56.336H52.7962Z" fill="#472B97"/>
</svg>
