<svg width="40" height="33" viewBox="0 0 40 33" fill="none" xmlns="http://www.w3.org/2000/svg">
<path d="M25.926 31.0378H13.6584C11.3113 31.0378 9.55098 30.4101 8.45931 29.1683C7.36765 27.9265 6.94461 26.1253 7.23118 23.7918L8.45931 13.5575C8.81411 10.5417 9.57827 7.83984 14.9001 7.83984H24.7251C30.0334 7.83984 30.7975 10.5417 31.166 13.5575L32.3941 23.7918C32.667 26.1253 32.2576 27.9402 31.166 29.1683C30.0334 30.4101 28.2867 31.0378 25.926 31.0378ZM14.8865 9.88672C10.9565 9.88672 10.7655 11.4423 10.4789 13.7894L9.25078 24.0238C9.04609 25.7568 9.2917 27.0259 9.98764 27.8037C10.6836 28.5815 11.9117 28.9772 13.6584 28.9772H25.926C27.6727 28.9772 28.9008 28.5815 29.5967 27.8037C30.2926 27.0259 30.5383 25.7568 30.3336 24.0238L29.1055 13.7894C28.8189 11.4287 28.6415 9.88672 24.6978 9.88672H14.8865Z" fill="#8A8A8A"/>
<path d="M25.2585 11.9336C24.699 11.9336 24.235 11.4696 24.235 10.9102V6.13411C24.235 4.66036 23.3208 3.74609 21.847 3.74609H17.7533C16.2795 3.74609 15.3652 4.66036 15.3652 6.13411V10.9102C15.3652 11.4696 14.9013 11.9336 14.3418 11.9336C13.7823 11.9336 13.3184 11.4696 13.3184 10.9102V6.13411C13.3184 3.52776 15.1469 1.69922 17.7533 1.69922H21.847C24.4534 1.69922 26.2819 3.52776 26.2819 6.13411V10.9102C26.2819 11.4696 25.8179 11.9336 25.2585 11.9336Z" fill="#8A8A8A"/>
<path d="M31.2763 24.2656H14.3418C13.7823 24.2656 13.3184 23.8017 13.3184 23.2422C13.3184 22.6827 13.7823 22.2188 14.3418 22.2188H31.2763C31.8358 22.2188 32.2997 22.6827 32.2997 23.2422C32.2997 23.8017 31.8358 24.2656 31.2763 24.2656Z" fill="#8A8A8A"/>
</svg>
