<svg width="36" height="36" viewBox="0 0 36 36" fill="none" xmlns="http://www.w3.org/2000/svg">
<path d="M33.9701 17.2534C32.4788 10.5111 30.2344 6.9125 26.9051 5.92954C26.2053 5.72423 25.4793 5.62167 24.75 5.62508C23.786 5.62508 22.9465 5.85993 22.0585 6.10883C20.9883 6.40907 19.7726 6.75008 18 6.75008C16.2274 6.75008 15.011 6.40977 13.9388 6.10954C13.05 5.85993 12.2112 5.62508 11.25 5.62508C10.4959 5.62243 9.745 5.72466 9.01901 5.92883C5.70729 6.90758 3.46432 10.5048 1.95119 17.2491C0.324163 24.5068 1.12502 29.0891 4.19698 30.1522C4.61806 30.3006 5.06112 30.3772 5.5076 30.3786C7.61205 30.3786 9.29955 28.6257 10.4527 27.1906C11.7556 25.5664 13.2806 24.7423 18 24.7423C22.2153 24.7423 23.9597 25.314 25.4665 27.1906C26.4136 28.3705 27.3087 29.1959 28.2017 29.7155C29.3892 30.406 30.5761 30.5593 31.7285 30.1634C33.544 29.544 34.5846 27.9064 34.8223 25.295C35.003 23.2925 34.7246 20.6621 33.9701 17.2534ZM14.625 16.8751H12.375V19.1251C12.375 19.4235 12.2565 19.7096 12.0455 19.9206C11.8345 20.1316 11.5484 20.2501 11.25 20.2501C10.9517 20.2501 10.6655 20.1316 10.4545 19.9206C10.2435 19.7096 10.125 19.4235 10.125 19.1251V16.8751H7.87502C7.57665 16.8751 7.29051 16.7566 7.07953 16.5456C6.86855 16.3346 6.75002 16.0485 6.75002 15.7501C6.75002 15.4517 6.86855 15.1656 7.07953 14.9546C7.29051 14.7436 7.57665 14.6251 7.87502 14.6251H10.125V12.3751C10.125 12.0767 10.2435 11.7906 10.4545 11.5796C10.6655 11.3686 10.9517 11.2501 11.25 11.2501C11.5484 11.2501 11.8345 11.3686 12.0455 11.5796C12.2565 11.7906 12.375 12.0767 12.375 12.3751V14.6251H14.625C14.9234 14.6251 15.2095 14.7436 15.4205 14.9546C15.6315 15.1656 15.75 15.4517 15.75 15.7501C15.75 16.0485 15.6315 16.3346 15.4205 16.5456C15.2095 16.7566 14.9234 16.8751 14.625 16.8751ZM20.5313 17.1563C20.2531 17.1563 19.9813 17.0739 19.75 16.9193C19.5187 16.7648 19.3385 16.5452 19.2321 16.2882C19.1256 16.0313 19.0978 15.7485 19.152 15.4757C19.2063 15.203 19.3402 14.9524 19.5369 14.7557C19.7336 14.559 19.9841 14.4251 20.2569 14.3709C20.5297 14.3166 20.8125 14.3444 21.0694 14.4509C21.3264 14.5573 21.546 14.7376 21.7005 14.9688C21.855 15.2001 21.9375 15.472 21.9375 15.7501C21.9375 16.123 21.7894 16.4807 21.5256 16.7445C21.2619 17.0082 20.9042 17.1563 20.5313 17.1563ZM23.625 20.2501C23.3467 20.2501 23.0747 20.1675 22.8434 20.0128C22.6121 19.8582 22.4318 19.6383 22.3255 19.3812C22.2192 19.124 22.1915 18.8411 22.2461 18.5682C22.3006 18.2953 22.4349 18.0447 22.6319 17.8482C22.8289 17.6517 23.0798 17.518 23.3528 17.4642C23.6259 17.4103 23.9087 17.4387 24.1656 17.5456C24.4225 17.6526 24.6419 17.8334 24.796 18.0651C24.9501 18.2968 25.032 18.5691 25.0313 18.8473C25.0303 19.2197 24.8818 19.5765 24.6182 19.8394C24.3545 20.1024 23.9974 20.2501 23.625 20.2501ZM23.625 14.0626C23.3469 14.0626 23.075 13.9801 22.8438 13.8256C22.6125 13.6711 22.4323 13.4514 22.3258 13.1945C22.2194 12.9375 22.1915 12.6548 22.2458 12.382C22.3001 12.1092 22.434 11.8586 22.6307 11.662C22.8273 11.4653 23.0779 11.3314 23.3507 11.2771C23.6235 11.2228 23.9062 11.2507 24.1632 11.3571C24.4201 11.4636 24.6398 11.6438 24.7943 11.8751C24.9488 12.1063 25.0313 12.3782 25.0313 12.6563C25.0313 13.0293 24.8831 13.387 24.6194 13.6507C24.3557 13.9144 23.998 14.0626 23.625 14.0626ZM26.7188 17.1563C26.4406 17.1563 26.1688 17.0739 25.9375 16.9193C25.7062 16.7648 25.526 16.5452 25.4196 16.2882C25.3131 16.0313 25.2853 15.7485 25.3395 15.4757C25.3938 15.203 25.5277 14.9524 25.7244 14.7557C25.9211 14.559 26.1716 14.4251 26.4444 14.3709C26.7172 14.3166 27 14.3444 27.2569 14.4509C27.5139 14.5573 27.7335 14.7376 27.888 14.9688C28.0425 15.2001 28.125 15.472 28.125 15.7501C28.125 16.123 27.9769 16.4807 27.7131 16.7445C27.4494 17.0082 27.0917 17.1563 26.7188 17.1563Z" fill="#472B97"/>
</svg>
