<svg width="53" height="34" viewBox="0 0 53 34" fill="none" xmlns="http://www.w3.org/2000/svg">
<g clip-path="url(#clip0_681_5627)">
<path d="M26.5 3.44531C27.0652 3.44531 27.5234 3.90352 27.5234 4.46875V9.58594H32.6406C38.1971 9.58594 42.7194 14.014 42.8711 19.5338L42.875 19.8203C42.875 25.3768 38.4469 29.8991 32.9271 30.0508L32.6406 30.0547H20.3594C14.7071 30.0547 10.125 25.4726 10.125 19.8203C10.125 14.2638 14.5531 9.74157 20.0729 9.58987L20.3594 9.58594H25.4766V4.46875C25.4766 3.90352 25.9348 3.44531 26.5 3.44531ZM32.6406 11.6328H20.3594C15.8375 11.6328 12.1719 15.2985 12.1719 19.8203C12.1719 24.2568 15.7005 27.8692 20.1044 28.0039L20.3594 28.0078H32.6406C37.1625 28.0078 40.8281 24.3421 40.8281 19.8203C40.8281 15.2985 37.1625 11.6328 32.6406 11.6328ZM20.3594 15.7266C20.9246 15.7266 21.3828 16.1848 21.3828 16.75V18.7969H23.4297C23.9949 18.7969 24.4531 19.2551 24.4531 19.8203C24.4531 20.3855 23.9949 20.8438 23.4297 20.8438H21.3828V22.8906C21.3828 23.4559 20.9246 23.9141 20.3594 23.9141C19.7941 23.9141 19.3359 23.4559 19.3359 22.8906V20.8438H17.2891C16.7238 20.8438 16.2656 20.3855 16.2656 19.8203C16.2656 19.2551 16.7238 18.7969 17.2891 18.7969H19.3359V16.75C19.3359 16.1848 19.7941 15.7266 20.3594 15.7266ZM35.1992 20.8438C36.0471 20.8438 36.7344 21.5311 36.7344 22.3789C36.7344 23.2267 36.0471 23.9141 35.1992 23.9141C34.3514 23.9141 33.6641 23.2267 33.6641 22.3789C33.6641 21.5311 34.3514 20.8438 35.1992 20.8438ZM33.1523 15.7266C34.0002 15.7266 34.6875 16.4139 34.6875 17.2617C34.6875 18.1096 34.0002 18.7969 33.1523 18.7969C32.3045 18.7969 31.6172 18.1096 31.6172 17.2617C31.6172 16.4139 32.3045 15.7266 33.1523 15.7266Z" fill="#8A8A8A"/>
</g>
<defs>
<clipPath id="clip0_681_5627">
<rect width="32.75" height="32.75" fill="white" transform="translate(10.125 0.375)"/>
</clipPath>
</defs>
</svg>
