<svg width="12" height="12" viewBox="0 0 12 12" fill="none" xmlns="http://www.w3.org/2000/svg">
<path d="M7.21506 9.41055C7.12006 9.41055 7.02506 9.37555 6.95006 9.30055C6.80506 9.15555 6.80506 8.91555 6.95006 8.77055L9.72006 6.00055L6.95006 3.23055C6.80506 3.08555 6.80506 2.84555 6.95006 2.70055C7.09506 2.55555 7.33506 2.55555 7.48006 2.70055L10.5151 5.73555C10.6601 5.88055 10.6601 6.12055 10.5151 6.26555L7.48006 9.30055C7.40506 9.37555 7.31006 9.41055 7.21506 9.41055Z" fill="#351B7F"/>
<path d="M10.165 6.375H1.75C1.545 6.375 1.375 6.205 1.375 6C1.375 5.795 1.545 5.625 1.75 5.625H10.165C10.37 5.625 10.54 5.795 10.54 6C10.54 6.205 10.37 6.375 10.165 6.375Z" fill="#351B7F"/>
</svg>
