<svg width="41" height="33" viewBox="0 0 41 33" fill="none" xmlns="http://www.w3.org/2000/svg">
<path d="M28.6518 31.0448H12.8499C9.11092 31.0448 6.08154 28.0018 6.08154 24.2628V14.1513C6.08154 12.2954 7.22779 9.96199 8.70154 8.81574L16.0566 3.08449C18.2673 1.36512 21.8015 1.28324 24.094 2.89345L32.5272 8.8021C34.151 9.9347 35.4201 12.3637 35.4201 14.3423V24.2765C35.4201 28.0018 32.3907 31.0448 28.6518 31.0448ZM17.3121 4.6947L9.95696 10.426C8.98811 11.1901 8.12842 12.9231 8.12842 14.1513V24.2628C8.12842 26.8692 10.2435 28.9979 12.8499 28.9979H28.6518C31.2581 28.9979 33.3732 26.8828 33.3732 24.2765V14.3423C33.3732 13.0323 32.4317 11.2174 31.3536 10.4805L22.9205 4.57189C21.3649 3.48022 18.7995 3.5348 17.3121 4.6947Z" fill="#8A8A8A"/>
<path d="M20.7502 25.584C20.1908 25.584 19.7268 25.12 19.7268 24.5605V20.4668C19.7268 19.9073 20.1908 19.4434 20.7502 19.4434C21.3097 19.4434 21.7737 19.9073 21.7737 20.4668V24.5605C21.7737 25.12 21.3097 25.584 20.7502 25.584Z" fill="#8A8A8A"/>
</svg>
