<svg width="41" height="34" viewBox="0 0 41 34" fill="none" xmlns="http://www.w3.org/2000/svg">
<path d="M28.3002 31.4198H12.4983C8.75936 31.4198 5.72998 28.3768 5.72998 24.6378V14.5263C5.72998 12.6704 6.87623 10.337 8.34998 9.19074L15.7051 3.45949C17.9157 1.74012 21.45 1.65824 23.7425 3.26845L32.1756 9.1771C33.7995 10.3097 35.0685 12.7387 35.0685 14.7173V24.6515C35.0685 28.3768 32.0392 31.4198 28.3002 31.4198ZM16.9605 5.0697L9.6054 10.801C8.63654 11.5651 7.77686 13.2981 7.77686 14.5263V24.6378C7.77686 27.2442 9.89196 29.3729 12.4983 29.3729H28.3002C30.9065 29.3729 33.0217 27.2578 33.0217 24.6515V14.7173C33.0217 13.4073 32.0801 11.5924 31.0021 10.8555L22.5689 4.94689C21.0133 3.85522 18.4479 3.9098 16.9605 5.0697Z" fill="#7933EB"/>
<path d="M20.4004 25.959C19.8409 25.959 19.377 25.495 19.377 24.9355V20.8418C19.377 20.2823 19.8409 19.8184 20.4004 19.8184C20.9599 19.8184 21.4238 20.2823 21.4238 20.8418V24.9355C21.4238 25.495 20.9599 25.959 20.4004 25.959Z" fill="#7933EB"/>
</svg>
