<svg width="84" height="75" viewBox="0 0 84 75" fill="none" xmlns="http://www.w3.org/2000/svg">
<rect width="84" height="75" rx="10" fill="#DDCEFA" fill-opacity="0.5"/>
<path d="M28.5 46.75H27.375C26.7783 46.75 26.206 46.5129 25.784 46.091C25.3621 45.669 25.125 45.0967 25.125 44.5V20.875C25.125 20.2783 25.3621 19.706 25.784 19.284C26.206 18.8621 26.7783 18.625 27.375 18.625H28.5C29.0967 18.625 29.669 18.8621 30.091 19.284C30.5129 19.706 30.75 20.2783 30.75 20.875V44.5C30.75 45.0967 30.5129 45.669 30.091 46.091C29.669 46.5129 29.0967 46.75 28.5 46.75ZM40.875 25.375C40.875 24.7783 40.6379 24.206 40.216 23.784C39.794 23.3621 39.2217 23.125 38.625 23.125H34.125C33.5283 23.125 32.956 23.3621 32.534 23.784C32.1121 24.206 31.875 24.7783 31.875 25.375V27.3438C31.875 27.4183 31.9046 27.4899 31.9574 27.5426C32.0101 27.5954 32.0817 27.625 32.1562 27.625H40.5938C40.6683 27.625 40.7399 27.5954 40.7926 27.5426C40.8454 27.4899 40.875 27.4183 40.875 27.3438V25.375ZM31.875 44.5C31.875 45.0967 32.1121 45.669 32.534 46.091C32.956 46.5129 33.5283 46.75 34.125 46.75H38.625C39.2217 46.75 39.794 46.5129 40.216 46.091C40.6379 45.669 40.875 45.0967 40.875 44.5V42.3906C40.875 42.3533 40.8602 42.3176 40.8338 42.2912C40.8074 42.2648 40.7717 42.25 40.7344 42.25H32.0156C31.9783 42.25 31.9426 42.2648 31.9162 42.2912C31.8898 42.3176 31.875 42.3533 31.875 42.3906V44.5Z" fill="#472B97"/>
<path d="M40.7344 29.875H32.0156C31.938 29.875 31.875 29.938 31.875 30.0156V39.8594C31.875 39.937 31.938 40 32.0156 40H40.7344C40.812 40 40.875 39.937 40.875 39.8594V30.0156C40.875 29.938 40.812 29.875 40.7344 29.875Z" fill="#472B97"/>
<path d="M46.5 46.75H44.25C43.6533 46.75 43.081 46.5129 42.659 46.091C42.2371 45.669 42 45.0967 42 44.5V17.5C42 16.9033 42.2371 16.331 42.659 15.909C43.081 15.4871 43.6533 15.25 44.25 15.25H46.5C47.0967 15.25 47.669 15.4871 48.091 15.909C48.5129 16.331 48.75 16.9033 48.75 17.5V44.5C48.75 45.0967 48.5129 45.669 48.091 46.091C47.669 46.5129 47.0967 46.75 46.5 46.75ZM58.8673 44.3207L56.6011 20.4145C56.497 19.3141 55.41 18.516 54.1732 18.6348L51.9338 18.8458C50.697 18.9632 49.7787 19.9504 49.8827 21.0508L52.1489 44.957C52.253 46.0574 53.34 46.8555 54.5768 46.7366L56.8162 46.5257C58.053 46.4083 58.9713 45.4211 58.8673 44.3207Z" fill="#472B97"/>
<path d="M29.364 57.944H31.156V59H27.996V53.384H29.364V57.944ZM32.4965 54.072C32.2565 54.072 32.0592 54.0027 31.9045 53.864C31.7552 53.72 31.6805 53.544 31.6805 53.336C31.6805 53.1227 31.7552 52.9467 31.9045 52.808C32.0592 52.664 32.2565 52.592 32.4965 52.592C32.7312 52.592 32.9232 52.664 33.0725 52.808C33.2272 52.9467 33.3045 53.1227 33.3045 53.336C33.3045 53.544 33.2272 53.72 33.0725 53.864C32.9232 54.0027 32.7312 54.072 32.4965 54.072ZM33.1765 54.536V59H31.8085V54.536H33.1765ZM35.5359 55.168C35.6639 54.96 35.8479 54.792 36.0879 54.664C36.3279 54.536 36.6025 54.472 36.9119 54.472C37.2799 54.472 37.6132 54.5653 37.9119 54.752C38.2105 54.9387 38.4452 55.2053 38.6159 55.552C38.7919 55.8987 38.8799 56.3013 38.8799 56.76C38.8799 57.2187 38.7919 57.624 38.6159 57.976C38.4452 58.3227 38.2105 58.592 37.9119 58.784C37.6132 58.9707 37.2799 59.064 36.9119 59.064C36.5972 59.064 36.3225 59.0027 36.0879 58.88C35.8532 58.752 35.6692 58.584 35.5359 58.376V59H34.1679V53.08H35.5359V55.168ZM37.4879 56.76C37.4879 56.4187 37.3919 56.152 37.1999 55.96C37.0132 55.7627 36.7812 55.664 36.5039 55.664C36.2319 55.664 35.9999 55.7627 35.8079 55.96C35.6212 56.1573 35.5279 56.4267 35.5279 56.768C35.5279 57.1093 35.6212 57.3787 35.8079 57.576C35.9999 57.7733 36.2319 57.872 36.5039 57.872C36.7759 57.872 37.0079 57.7733 37.1999 57.576C37.3919 57.3733 37.4879 57.1013 37.4879 56.76ZM40.9656 55.28C41.1256 55.0347 41.3256 54.8427 41.5656 54.704C41.8056 54.56 42.0722 54.488 42.3656 54.488V55.936H41.9896C41.6482 55.936 41.3922 56.0107 41.2216 56.16C41.0509 56.304 40.9656 56.56 40.9656 56.928V59H39.5976V54.536H40.9656V55.28ZM42.7474 56.76C42.7474 56.3013 42.8328 55.8987 43.0034 55.552C43.1794 55.2053 43.4168 54.9387 43.7154 54.752C44.0141 54.5653 44.3474 54.472 44.7154 54.472C45.0301 54.472 45.3048 54.536 45.5394 54.664C45.7794 54.792 45.9634 54.96 46.0914 55.168V54.536H47.4594V59H46.0914V58.368C45.9581 58.576 45.7714 58.744 45.5314 58.872C45.2968 59 45.0221 59.064 44.7074 59.064C44.3448 59.064 44.0141 58.9707 43.7154 58.784C43.4168 58.592 43.1794 58.3227 43.0034 57.976C42.8328 57.624 42.7474 57.2187 42.7474 56.76ZM46.0914 56.768C46.0914 56.4267 45.9954 56.1573 45.8034 55.96C45.6168 55.7627 45.3874 55.664 45.1154 55.664C44.8434 55.664 44.6114 55.7627 44.4194 55.96C44.2328 56.152 44.1394 56.4187 44.1394 56.76C44.1394 57.1013 44.2328 57.3733 44.4194 57.576C44.6114 57.7733 44.8434 57.872 45.1154 57.872C45.3874 57.872 45.6168 57.7733 45.8034 57.576C45.9954 57.3787 46.0914 57.1093 46.0914 56.768ZM49.8171 55.28C49.9771 55.0347 50.1771 54.8427 50.4171 54.704C50.6571 54.56 50.9238 54.488 51.2171 54.488V55.936H50.8411C50.4998 55.936 50.2438 56.0107 50.0731 56.16C49.9025 56.304 49.8171 56.56 49.8171 56.928V59H48.4491V54.536H49.8171V55.28ZM56.431 54.536L53.631 61.12H52.159L53.183 58.848L51.367 54.536H52.895L53.927 57.328L54.951 54.536H56.431Z" fill="#472B97"/>
</svg>
