<svg width="40" height="34" viewBox="0 0 40 34" fill="none" xmlns="http://www.w3.org/2000/svg">
<path fill-rule="evenodd" clip-rule="evenodd" d="M14.9829 24.9375C14.9829 24.3723 15.4411 23.9141 16.0063 23.9141H24.1938C24.7591 23.9141 25.2173 24.3723 25.2173 24.9375C25.2173 25.5027 24.7591 25.9609 24.1938 25.9609H16.0063C15.4411 25.9609 14.9829 25.5027 14.9829 24.9375Z" fill="#808080"/>
<path fill-rule="evenodd" clip-rule="evenodd" d="M15.5949 2.07618H24.6026C24.9027 2.0761 25.1326 2.07603 25.3338 2.09761C27.1816 2.29592 28.5959 3.81338 28.6818 5.65155C30.3067 6.13677 31.4644 7.64026 31.4855 9.36465C32.3056 9.61073 33.013 9.99887 33.592 10.6244C34.4817 11.5854 34.7575 12.7697 34.768 14.1531C34.7781 15.4832 34.541 17.164 34.2467 19.2512L33.6476 23.5C33.4176 25.1322 33.2306 26.458 32.9398 27.497C32.6355 28.584 32.1871 29.4784 31.3568 30.166C30.533 30.848 29.5557 31.1421 28.4004 31.2807C27.2835 31.4147 25.8784 31.4147 24.1288 31.4147H16.0692C14.3196 31.4147 12.9144 31.4147 11.7975 31.2807C10.6423 31.1421 9.66497 30.848 8.84118 30.166C8.01082 29.4784 7.56234 28.584 7.25808 27.497C6.96724 26.458 6.78034 25.1322 6.55025 23.5L5.95122 19.2512C5.6569 17.164 5.4199 15.4832 5.43 14.1531C5.44049 12.7697 5.71621 11.5854 6.6059 10.6244C7.18483 9.99902 7.89201 9.61091 8.71189 9.36482C8.73277 7.64026 9.89074 6.13661 11.5158 5.65147C11.6016 3.81334 13.016 2.29592 14.8639 2.09761C15.0649 2.07603 15.2949 2.0761 15.5949 2.07618ZM10.8048 9.00532C12.0681 8.89907 13.6168 8.89908 15.4811 8.8991H24.7167C26.5807 8.89908 28.1293 8.89907 29.3925 9.00526C29.2054 8.1761 28.4647 7.53452 27.5519 7.53452H12.6454C11.7326 7.53452 10.992 8.17611 10.8048 9.00532ZM25.1153 4.1328C25.8661 4.21338 26.4594 4.77304 26.6049 5.48764H13.5928C13.7381 4.77304 14.3315 4.21338 15.0823 4.1328C15.1591 4.12456 15.2685 4.12306 15.6518 4.12306H24.5459C24.929 4.12306 25.0385 4.12456 25.1153 4.1328ZM8.10791 12.0149C8.52124 11.5685 9.1428 11.2723 10.3505 11.1117C11.5802 10.9481 13.2263 10.946 15.5582 10.946H24.6397C26.9715 10.946 28.6176 10.9481 29.8474 11.1117C31.0551 11.2723 31.6766 11.5685 32.09 12.0149C32.4937 12.451 32.7126 13.0444 32.7211 14.1687C32.73 15.3287 32.5169 16.8584 32.208 19.0493L31.6309 23.143C31.3883 24.8635 31.2184 26.0533 30.9687 26.9453C30.7282 27.8043 30.4452 28.2632 30.0514 28.5893C29.6509 28.9209 29.1131 29.1337 28.1566 29.2484C27.1758 29.3662 25.8937 29.3678 24.0625 29.3678H16.1353C14.3042 29.3678 13.0221 29.3662 12.0414 29.2484C11.0848 29.1337 10.5471 28.9209 10.1466 28.5893C9.75262 28.2632 9.46964 27.8043 9.22919 26.9453C8.97951 26.0533 8.80962 24.8635 8.56704 23.143L7.98986 19.0493C7.68099 16.8584 7.468 15.3287 7.47681 14.1687C7.48535 13.0444 7.70419 12.451 8.10791 12.0149Z" fill="#808080"/>
</svg>
