<svg width="40" height="34" viewBox="0 0 40 34" fill="none" xmlns="http://www.w3.org/2000/svg">
<path fill-rule="evenodd" clip-rule="evenodd" d="M14.5327 24.9375C14.5327 24.3723 14.9909 23.9141 15.5562 23.9141H23.7437C24.3089 23.9141 24.7671 24.3723 24.7671 24.9375C24.7671 25.5027 24.3089 25.9609 23.7437 25.9609H15.5562C14.9909 25.9609 14.5327 25.5027 14.5327 24.9375Z" fill="#7933EB"/>
<path fill-rule="evenodd" clip-rule="evenodd" d="M15.1448 2.07618H24.1524C24.4525 2.0761 24.6824 2.07603 24.8836 2.09761C26.7314 2.29592 28.1458 3.81338 28.2316 5.65155C29.8565 6.13677 31.0142 7.64026 31.0353 9.36465C31.8554 9.61073 32.5628 9.99887 33.1418 10.6244C34.0315 11.5854 34.3073 12.7697 34.3178 14.1531C34.3279 15.4832 34.0908 17.164 33.7965 19.2512L33.1974 23.5C32.9674 25.1322 32.7804 26.458 32.4896 27.497C32.1853 28.584 31.7369 29.4784 30.9066 30.166C30.0828 30.848 29.1055 31.1421 27.9502 31.2807C26.8333 31.4147 25.4282 31.4147 23.6787 31.4147H15.619C13.8695 31.4147 12.4642 31.4147 11.3473 31.2807C10.1921 31.1421 9.21478 30.848 8.39099 30.166C7.56063 29.4784 7.11214 28.584 6.80788 27.497C6.51705 26.458 6.33014 25.1322 6.10006 23.5L5.50102 19.2512C5.20671 17.164 4.96971 15.4832 4.9798 14.1531C4.9903 12.7697 5.26601 11.5854 6.15571 10.6244C6.73463 9.99902 7.44181 9.61091 8.2617 9.36482C8.28257 7.64026 9.44055 6.13661 11.0656 5.65147C11.1514 3.81334 12.5658 2.29592 14.4137 2.09761C14.6147 2.07603 14.8447 2.0761 15.1448 2.07618ZM10.3546 9.00532C11.6179 8.89907 13.1666 8.89908 15.0309 8.8991H24.2665C26.1305 8.89908 27.6791 8.89907 28.9423 9.00526C28.7552 8.1761 28.0145 7.53452 27.1017 7.53452H12.1952C11.2824 7.53452 10.5418 8.17611 10.3546 9.00532ZM24.6651 4.1328C25.4159 4.21338 26.0092 4.77304 26.1547 5.48764H13.1426C13.2879 4.77304 13.8813 4.21338 14.6321 4.1328C14.7089 4.12456 14.8183 4.12306 15.2016 4.12306H24.0957C24.4788 4.12306 24.5883 4.12456 24.6651 4.1328ZM7.65772 12.0149C8.07105 11.5685 8.6926 11.2723 9.90034 11.1117C11.13 10.9481 12.7761 10.946 15.108 10.946H24.1896C26.5214 10.946 28.1674 10.9481 29.3972 11.1117C30.6049 11.2723 31.2264 11.5685 31.6398 12.0149C32.0435 12.451 32.2624 13.0444 32.2709 14.1687C32.2798 15.3287 32.0667 16.8584 31.7578 19.0493L31.1807 23.143C30.9381 24.8635 30.7682 26.0533 30.5185 26.9453C30.278 27.8043 29.995 28.2632 29.6012 28.5893C29.2007 28.9209 28.6629 29.1337 27.7064 29.2484C26.7256 29.3662 25.4435 29.3678 23.6123 29.3678H15.6851C13.854 29.3678 12.5719 29.3662 11.5912 29.2484C10.6346 29.1337 10.0969 28.9209 9.69636 28.5893C9.30242 28.2632 9.01945 27.8043 8.779 26.9453C8.52932 26.0533 8.35943 24.8635 8.11684 23.143L7.53967 19.0493C7.23079 16.8584 7.01781 15.3287 7.02661 14.1687C7.03515 13.0444 7.25399 12.451 7.65772 12.0149Z" fill="#7933EB"/>
</svg>
