<svg width="12" height="12" viewBox="0 0 12 12" fill="none" xmlns="http://www.w3.org/2000/svg">
<path d="M5.99994 7.0857C4.93494 7.0857 4.06494 6.2207 4.06494 5.1507C4.06494 4.0807 4.93494 3.2207 5.99994 3.2207C7.06494 3.2207 7.93494 4.0857 7.93494 5.1557C7.93494 6.2257 7.06494 7.0857 5.99994 7.0857ZM5.99994 3.9707C5.34994 3.9707 4.81494 4.5007 4.81494 5.1557C4.81494 5.8107 5.34494 6.3407 5.99994 6.3407C6.65494 6.3407 7.18494 5.8107 7.18494 5.1557C7.18494 4.5007 6.64994 3.9707 5.99994 3.9707Z" fill="white"/>
<path d="M5.99984 11.38C5.25984 11.38 4.51484 11.1 3.93484 10.545C2.45984 9.125 0.829844 6.86 1.44484 4.165C1.99984 1.72 4.13484 0.625 5.99984 0.625C5.99984 0.625 5.99984 0.625 6.00484 0.625C7.86984 0.625 10.0048 1.72 10.5598 4.17C11.1698 6.865 9.53984 9.125 8.06484 10.545C7.48484 11.1 6.73984 11.38 5.99984 11.38ZM5.99984 1.375C4.54484 1.375 2.67484 2.15 2.17984 4.33C1.63984 6.685 3.11984 8.715 4.45984 10C5.32484 10.835 6.67984 10.835 7.54484 10C8.87984 8.715 10.3598 6.685 9.82984 4.33C9.32984 2.15 7.45484 1.375 5.99984 1.375Z" fill="white"/>
</svg>
