<svg width="20" height="20" viewBox="0 0 20 20" fill="none" xmlns="http://www.w3.org/2000/svg">
<path d="M12.6991 18.5581H12.5908C8.89078 18.5581 7.10745 17.0997 6.79912 13.8331C6.76578 13.4914 7.01578 13.1831 7.36578 13.1497C7.69912 13.1164 8.01578 13.3747 8.04912 13.7164C8.29078 16.3331 9.52412 17.3081 12.5991 17.3081H12.7075C16.0991 17.3081 17.2991 16.1081 17.2991 12.7164V7.28307C17.2991 3.89141 16.0991 2.69141 12.7075 2.69141H12.5991C9.50745 2.69141 8.27412 3.68307 8.04912 6.34974C8.00745 6.69141 7.71578 6.94974 7.36578 6.91641C7.01578 6.89141 6.76578 6.58307 6.79078 6.24141C7.07412 2.92474 8.86578 1.44141 12.5908 1.44141H12.6991C16.7908 1.44141 18.5408 3.19141 18.5408 7.28307V12.7164C18.5408 16.8081 16.7908 18.5581 12.6991 18.5581Z" fill="white"/>
<path d="M12.499 10.625H3.01562C2.67396 10.625 2.39062 10.3417 2.39062 10C2.39062 9.65833 2.67396 9.375 3.01562 9.375H12.499C12.8406 9.375 13.124 9.65833 13.124 10C13.124 10.3417 12.8406 10.625 12.499 10.625Z" fill="white"/>
<path d="M4.87552 13.4172C4.71719 13.4172 4.55885 13.3589 4.43385 13.2339L1.64219 10.4422C1.40052 10.2005 1.40052 9.80052 1.64219 9.55885L4.43385 6.76719C4.67552 6.52552 5.07552 6.52552 5.31719 6.76719C5.55885 7.00885 5.55885 7.40885 5.31719 7.65052L2.96719 10.0005L5.31719 12.3505C5.55885 12.5922 5.55885 12.9922 5.31719 13.2339C5.20052 13.3589 5.03385 13.4172 4.87552 13.4172Z" fill="white"/>
</svg>
