<svg width="24" height="24" viewBox="0 0 24 24" fill="none" xmlns="http://www.w3.org/2000/svg">
<path d="M11.54 22.7501C11.71 22.7501 11.88 22.7501 12.05 22.7401C17.65 22.4901 22.33 17.9801 22.72 12.4801C23.06 7.76011 20.33 3.35011 15.93 1.50011C14.68 0.980114 14.02 1.38011 13.74 1.67011C13.46 1.95011 13.07 2.60011 13.59 3.79011C14.05 4.85011 14.28 5.98011 14.27 7.14011C14.25 11.5701 10.57 15.3301 6.07999 15.5101C5.42999 15.5401 4.78999 15.4901 4.16999 15.3801C2.84999 15.1401 2.29999 15.6701 2.08999 16.0101C1.87999 16.3501 1.63999 17.0801 2.43999 18.1601C4.55999 21.0601 7.92999 22.7501 11.54 22.7501ZM21.23 12.3701C20.89 17.1301 16.83 21.0301 11.99 21.2401C8.69999 21.4001 5.57999 19.9001 3.65999 17.2801C3.50999 17.0701 3.43999 16.9201 3.40999 16.8401C3.49999 16.8301 3.65999 16.8201 3.90999 16.8701C4.63999 17.0001 5.39999 17.0501 6.14999 17.0201C11.43 16.8101 15.75 12.3801 15.78 7.16011C15.78 5.78011 15.51 4.45011 14.96 3.20011C14.86 2.98011 14.84 2.83011 14.83 2.75011C14.92 2.75011 15.08 2.77011 15.34 2.88011C19.15 4.48011 21.51 8.30011 21.23 12.3701Z" fill="#3E238B"/>
</svg>
