<svg width="32" height="32" viewBox="0 0 32 32" fill="none" xmlns="http://www.w3.org/2000/svg">
<rect width="32" height="32" rx="16" fill="#EEEEEE" fill-opacity="0.2"/>
<path d="M16.0199 24.5299C13.6899 24.5299 11.3599 24.1599 9.14987 23.4199C8.30987 23.1299 7.66987 22.5399 7.38987 21.7699C7.09987 20.9999 7.19987 20.1499 7.65987 19.3899L8.80987 17.4799C9.04987 17.0799 9.26987 16.2799 9.26987 15.8099V12.9199C9.26987 9.19992 12.2999 6.16992 16.0199 6.16992C19.7399 6.16992 22.7699 9.19992 22.7699 12.9199V15.8099C22.7699 16.2699 22.9899 17.0799 23.2299 17.4899L24.3699 19.3899C24.7999 20.1099 24.8799 20.9799 24.5899 21.7699C24.2999 22.5599 23.6699 23.1599 22.8799 23.4199C20.6799 24.1599 18.3499 24.5299 16.0199 24.5299ZM16.0199 7.66992C13.1299 7.66992 10.7699 10.0199 10.7699 12.9199V15.8099C10.7699 16.5399 10.4699 17.6199 10.0999 18.2499L8.94987 20.1599C8.72987 20.5299 8.66987 20.9199 8.79987 21.2499C8.91987 21.5899 9.21987 21.8499 9.62987 21.9899C13.8099 23.3899 18.2399 23.3899 22.4199 21.9899C22.7799 21.8699 23.0599 21.5999 23.1899 21.2399C23.3199 20.8799 23.2899 20.4899 23.0899 20.1599L21.9399 18.2499C21.5599 17.5999 21.2699 16.5299 21.2699 15.7999V12.9199C21.2699 10.0199 18.9199 7.66992 16.0199 7.66992Z" fill="#1A1A1A"/>
<path d="M17.8801 7.93969C17.8101 7.93969 17.7401 7.92969 17.6701 7.90969C17.3801 7.82969 17.1001 7.76969 16.8301 7.72969C15.9801 7.61969 15.1601 7.67969 14.3901 7.90969C14.1101 7.99969 13.8101 7.90969 13.6201 7.69969C13.4301 7.48969 13.3701 7.18969 13.4801 6.91969C13.8901 5.86969 14.8901 5.17969 16.0301 5.17969C17.1701 5.17969 18.1701 5.85969 18.5801 6.91969C18.6801 7.18969 18.6301 7.48969 18.4401 7.69969C18.2901 7.85969 18.0801 7.93969 17.8801 7.93969Z" fill="#1A1A1A"/>
<path d="M16.02 26.8105C15.03 26.8105 14.07 26.4105 13.37 25.7105C12.67 25.0105 12.27 24.0505 12.27 23.0605H13.77C13.77 23.6505 14.01 24.2305 14.43 24.6505C14.85 25.0705 15.43 25.3105 16.02 25.3105C17.26 25.3105 18.27 24.3005 18.27 23.0605H19.77C19.77 25.1305 18.09 26.8105 16.02 26.8105Z" fill="#1A1A1A"/>
</svg>
