<svg width="34" height="34" viewBox="0 0 34 34" fill="none" xmlns="http://www.w3.org/2000/svg">
<path d="M11.5407 29.4087C10.4627 29.4087 9.43925 29.1495 8.53862 28.6309C6.40987 27.4028 5.23633 24.9056 5.23633 21.617V11.8875C5.23633 8.58519 6.40987 6.10165 8.53862 4.87353C10.6674 3.6454 13.4102 3.87738 16.2758 5.52853L24.6953 10.3864C27.5473 12.0376 29.1302 14.3028 29.1302 16.759C29.1302 19.2153 27.5609 21.4805 24.6953 23.1317L16.2758 27.9896C14.6247 28.9311 13.0145 29.4087 11.5407 29.4087ZM11.5407 6.12894C10.8038 6.12894 10.1488 6.29269 9.56206 6.63384C8.08831 7.47988 7.2832 9.34936 7.2832 11.8875V21.6033C7.2832 24.1414 8.08831 25.9973 9.56206 26.857C11.0358 27.7167 13.0554 27.471 15.2524 26.202L23.6718 21.344C25.8688 20.075 27.0833 18.4511 27.0833 16.7454C27.0833 15.0397 25.8688 13.4158 23.6718 12.1468L15.2524 7.28884C13.9151 6.52467 12.6597 6.12894 11.5407 6.12894Z" fill="#808080"/>
</svg>
