<svg width="33" height="33" viewBox="0 0 33 33" fill="none" xmlns="http://www.w3.org/2000/svg">
<path d="M16.5746 17.3919C12.2489 17.3919 8.72827 13.8713 8.72827 9.54557C8.72827 5.21984 12.2489 1.69922 16.5746 1.69922C20.9004 1.69922 24.421 5.21984 24.421 9.54557C24.421 13.8713 20.9004 17.3919 16.5746 17.3919ZM16.5746 3.74609C13.3815 3.74609 10.7751 6.35245 10.7751 9.54557C10.7751 12.7387 13.3815 15.3451 16.5746 15.3451C19.7678 15.3451 22.3741 12.7387 22.3741 9.54557C22.3741 6.35245 19.7678 3.74609 16.5746 3.74609Z" fill="#2D156F"/>
<path d="M28.297 31.0423C27.7376 31.0423 27.2736 30.5784 27.2736 30.0189C27.2736 25.3111 22.4703 21.4902 16.5753 21.4902C10.6803 21.4902 5.87695 25.3111 5.87695 30.0189C5.87695 30.5784 5.41299 31.0423 4.85352 31.0423C4.29404 31.0423 3.83008 30.5784 3.83008 30.0189C3.83008 24.1921 9.54768 19.4434 16.5753 19.4434C23.6029 19.4434 29.3205 24.1921 29.3205 30.0189C29.3205 30.5784 28.8565 31.0423 28.297 31.0423Z" fill="#2D156F"/>
</svg>
