<svg width="40" height="34" viewBox="0 0 40 34" fill="none" xmlns="http://www.w3.org/2000/svg">
<path d="M20.1515 17.7669C15.8258 17.7669 12.3052 14.2463 12.3052 9.92057C12.3052 5.59484 15.8258 2.07422 20.1515 2.07422C24.4773 2.07422 27.9979 5.59484 27.9979 9.92057C27.9979 14.2463 24.4773 17.7669 20.1515 17.7669ZM20.1515 4.12109C16.9584 4.12109 14.3521 6.72745 14.3521 9.92057C14.3521 13.1137 16.9584 15.7201 20.1515 15.7201C23.3447 15.7201 25.951 13.1137 25.951 9.92057C25.951 6.72745 23.3447 4.12109 20.1515 4.12109Z" fill="#808080"/>
<path d="M31.8722 31.4173C31.3128 31.4173 30.8488 30.9534 30.8488 30.3939C30.8488 25.6861 26.0455 21.8652 20.1505 21.8652C14.2555 21.8652 9.45215 25.6861 9.45215 30.3939C9.45215 30.9534 8.98819 31.4173 8.42871 31.4173C7.86923 31.4173 7.40527 30.9534 7.40527 30.3939C7.40527 24.5671 13.1229 19.8184 20.1505 19.8184C27.1781 19.8184 32.8957 24.5671 32.8957 30.3939C32.8957 30.9534 32.4317 31.4173 31.8722 31.4173Z" fill="#808080"/>
</svg>
