<svg width="84" height="75" viewBox="0 0 84 75" fill="none" xmlns="http://www.w3.org/2000/svg">
<rect width="84" height="75" rx="10" fill="#DDCEFA" fill-opacity="0.5"/>
<path d="M37.233 27.2635H40.0155L38.6235 23.893L37.233 27.2635ZM32.4375 17.5C31.3932 17.5 30.3917 17.9148 29.6533 18.6533C28.9148 19.3917 28.5 20.3932 28.5 21.4375V40.5625C28.5 42.7375 30.2625 44.5 32.4375 44.5H42.3892C41.3855 42.9332 40.8534 41.1108 40.8562 39.25C40.8562 38.062 41.0685 36.9242 41.4577 35.872H32.4375C32.1889 35.872 31.9504 35.7732 31.7746 35.5974C31.5988 35.4216 31.5 35.1831 31.5 34.9345C31.5 34.6859 31.5988 34.4474 31.7746 34.2716C31.9504 34.0958 32.1889 33.997 32.4375 33.997H42.3915C43.2728 32.6177 44.4873 31.4827 45.9231 30.6967C47.3588 29.9107 48.9695 29.4992 50.6062 29.5C52.3897 29.5 54.0615 29.9792 55.5 30.8155V21.4375C55.5 19.2625 53.7375 17.5 51.5625 17.5H32.4375ZM31.5 39.4375C31.5 38.92 31.92 38.5 32.4375 38.5H38.4435C38.6921 38.5 38.9306 38.5988 39.1064 38.7746C39.2822 38.9504 39.381 39.1889 39.381 39.4375C39.381 39.6861 39.2822 39.9246 39.1064 40.1004C38.9306 40.2762 38.6921 40.375 38.4435 40.375H32.4375C31.92 40.375 31.5 39.955 31.5 39.4375ZM38.6235 20.4985C39.003 20.4985 39.345 20.7272 39.4897 21.0782L43.0537 29.7078C43.1415 29.9361 43.1366 30.1897 43.04 30.4145C42.9433 30.6392 42.7627 30.8173 42.5366 30.9107C42.3104 31.0041 42.0568 31.0054 41.8297 30.9143C41.6026 30.8232 41.4202 30.647 41.3212 30.4233L40.7902 29.1385H36.459L35.9287 30.4233C35.8839 30.54 35.8161 30.6465 35.7294 30.7367C35.6427 30.8268 35.5389 30.8987 35.424 30.9481C35.3091 30.9975 35.1855 31.0234 35.0604 31.0243C34.9354 31.0252 34.8114 31.0011 34.6958 30.9533C34.5802 30.9056 34.4754 30.8352 34.3874 30.7463C34.2994 30.6575 34.2301 30.5519 34.1836 30.4358C34.137 30.3197 34.1142 30.1955 34.1163 30.0705C34.1185 29.9455 34.1457 29.8221 34.1962 29.7078L37.7565 21.0782C37.8274 20.9066 37.9476 20.7599 38.1019 20.6567C38.2563 20.5535 38.4378 20.4984 38.6235 20.4985ZM47.811 20.4985C48.3285 20.4985 48.7485 20.9185 48.7485 21.436V23.5H50.8125C51.0611 23.5 51.2996 23.5988 51.4754 23.7746C51.6512 23.9504 51.75 24.1889 51.75 24.4375C51.75 24.6861 51.6512 24.9246 51.4754 25.1004C51.2996 25.2762 51.0611 25.375 50.8125 25.375H48.7485V27.436C48.7485 27.6846 48.6497 27.9231 48.4739 28.0989C48.2981 28.2747 48.0596 28.3735 47.811 28.3735C47.5624 28.3735 47.3239 28.2747 47.1481 28.0989C46.9723 27.9231 46.8735 27.6846 46.8735 27.436V25.375H44.8125C44.5639 25.375 44.3254 25.2762 44.1496 25.1004C43.9738 24.9246 43.875 24.6861 43.875 24.4375C43.875 24.1889 43.9738 23.9504 44.1496 23.7746C44.3254 23.5988 44.5639 23.5 44.8125 23.5H46.8735V21.436C46.8735 20.9185 47.2935 20.4985 47.811 20.4985ZM58.8562 39.25C58.8562 43.8062 55.1625 47.5 50.6062 47.5C46.05 47.5 42.3562 43.8062 42.3562 39.25C42.3562 34.6938 46.05 31 50.6062 31C55.1625 31 58.8562 34.6938 58.8562 39.25ZM51.3562 34C51.3562 33.8011 51.2772 33.6103 51.1366 33.4697C50.9959 33.329 50.8052 33.25 50.6062 33.25C50.4073 33.25 50.2166 33.329 50.0759 33.4697C49.9353 33.6103 49.8562 33.8011 49.8562 34V38.5H45.3562C45.1573 38.5 44.9666 38.579 44.8259 38.7197C44.6853 38.8603 44.6062 39.0511 44.6062 39.25C44.6062 39.4489 44.6853 39.6397 44.8259 39.7803C44.9666 39.921 45.1573 40 45.3562 40H49.8562V44.5C49.8562 44.6989 49.9353 44.8897 50.0759 45.0303C50.2166 45.171 50.4073 45.25 50.6062 45.25C50.8052 45.25 50.9959 45.171 51.1366 45.0303C51.2772 44.8897 51.3562 44.6989 51.3562 44.5V40H55.8562C56.0552 40 56.2459 39.921 56.3866 39.7803C56.5272 39.6397 56.6062 39.4489 56.6062 39.25C56.6062 39.0511 56.5272 38.8603 56.3866 38.7197C56.2459 38.579 56.0552 38.5 55.8562 38.5H51.3562V34Z" fill="#472B97"/>
<path d="M36.996 59.96L36.276 58.992C36.0627 59.0347 35.8547 59.056 35.652 59.056C35.124 59.056 34.6387 58.9333 34.196 58.688C33.7587 58.4427 33.4093 58.1013 33.148 57.664C32.892 57.2213 32.764 56.7253 32.764 56.176C32.764 55.6267 32.892 55.1333 33.148 54.696C33.4093 54.2587 33.7587 53.9173 34.196 53.672C34.6387 53.4267 35.124 53.304 35.652 53.304C36.18 53.304 36.6627 53.4267 37.1 53.672C37.5427 53.9173 37.8893 54.2587 38.14 54.696C38.396 55.1333 38.524 55.6267 38.524 56.176C38.524 56.656 38.4253 57.096 38.228 57.496C38.036 57.8907 37.7667 58.2187 37.42 58.48L38.652 59.96H36.996ZM34.164 56.176C34.164 56.672 34.2973 57.0693 34.564 57.368C34.836 57.6613 35.1987 57.808 35.652 57.808C36.1 57.808 36.4573 57.6587 36.724 57.36C36.996 57.0613 37.132 56.6667 37.132 56.176C37.132 55.68 36.996 55.2853 36.724 54.992C36.4573 54.6933 36.1 54.544 35.652 54.544C35.1987 54.544 34.836 54.6907 34.564 54.984C34.2973 55.2773 34.164 55.6747 34.164 56.176ZM43.7087 54.536V59H42.3407V58.392C42.202 58.5893 42.0127 58.7493 41.7727 58.872C41.538 58.9893 41.2767 59.048 40.9887 59.048C40.6474 59.048 40.346 58.9733 40.0847 58.824C39.8234 58.6693 39.6207 58.448 39.4767 58.16C39.3327 57.872 39.2607 57.5333 39.2607 57.144V54.536H40.6207V56.96C40.6207 57.2587 40.698 57.4907 40.8527 57.656C41.0074 57.8213 41.2154 57.904 41.4767 57.904C41.7434 57.904 41.954 57.8213 42.1087 57.656C42.2634 57.4907 42.3407 57.2587 42.3407 56.96V54.536H43.7087ZM45.3793 54.072C45.1393 54.072 44.942 54.0027 44.7873 53.864C44.638 53.72 44.5633 53.544 44.5633 53.336C44.5633 53.1227 44.638 52.9467 44.7873 52.808C44.942 52.664 45.1393 52.592 45.3793 52.592C45.614 52.592 45.806 52.664 45.9553 52.808C46.11 52.9467 46.1873 53.1227 46.1873 53.336C46.1873 53.544 46.11 53.72 45.9553 53.864C45.806 54.0027 45.614 54.072 45.3793 54.072ZM46.0593 54.536V59H44.6913V54.536H46.0593ZM48.3307 57.872H50.2667V59H46.8027V57.912L48.6587 55.664H46.8187V54.536H50.2267V55.624L48.3307 57.872Z" fill="#472B97"/>
</svg>
