<svg width="36" height="36" viewBox="0 0 36 36" fill="none" xmlns="http://www.w3.org/2000/svg">
<path d="M13.233 14.2635H16.0155L14.6235 10.893L13.233 14.2635ZM8.4375 4.5C7.39321 4.5 6.39169 4.91484 5.65327 5.65327C4.91484 6.39169 4.5 7.39321 4.5 8.4375V27.5625C4.5 29.7375 6.2625 31.5 8.4375 31.5H18.3892C17.3855 29.9332 16.8534 28.1108 16.8562 26.25C16.8562 25.062 17.0685 23.9243 17.4577 22.872H8.4375C8.18886 22.872 7.9504 22.7732 7.77459 22.5974C7.59877 22.4216 7.5 22.1831 7.5 21.9345C7.5 21.6859 7.59877 21.4474 7.77459 21.2716C7.9504 21.0958 8.18886 20.997 8.4375 20.997H18.3915C19.2728 19.6177 20.4873 18.4827 21.9231 17.6967C23.3588 16.9107 24.9695 16.4992 26.6062 16.5C28.3897 16.5 30.0615 16.9792 31.5 17.8155V8.4375C31.5 6.2625 29.7375 4.5 27.5625 4.5H8.4375ZM7.5 26.4375C7.5 25.92 7.92 25.5 8.4375 25.5H14.4435C14.6921 25.5 14.9306 25.5988 15.1064 25.7746C15.2822 25.9504 15.381 26.1889 15.381 26.4375C15.381 26.6861 15.2822 26.9246 15.1064 27.1004C14.9306 27.2762 14.6921 27.375 14.4435 27.375H8.4375C7.92 27.375 7.5 26.955 7.5 26.4375ZM14.6235 7.4985C15.003 7.4985 15.345 7.72725 15.4897 8.07825L19.0537 16.7078C19.1415 16.9361 19.1366 17.1897 19.04 17.4145C18.9433 17.6392 18.7627 17.8173 18.5366 17.9107C18.3104 18.0041 18.0568 18.0054 17.8297 17.9143C17.6026 17.8232 17.4202 17.647 17.3212 17.4233L16.7902 16.1385H12.459L11.9287 17.4233C11.8839 17.54 11.8161 17.6465 11.7294 17.7367C11.6427 17.8268 11.5389 17.8987 11.424 17.9481C11.3091 17.9975 11.1855 18.0234 11.0604 18.0243C10.9354 18.0252 10.8114 18.0011 10.6958 17.9533C10.5802 17.9056 10.4754 17.8352 10.3874 17.7463C10.2994 17.6575 10.2301 17.5519 10.1836 17.4358C10.137 17.3197 10.1142 17.1955 10.1163 17.0705C10.1185 16.9455 10.1457 16.8221 10.1962 16.7078L13.7565 8.07825C13.8274 7.90662 13.9476 7.75989 14.1019 7.65668C14.2563 7.55347 14.4378 7.49841 14.6235 7.4985ZM23.811 7.4985C24.3285 7.4985 24.7485 7.9185 24.7485 8.436V10.5H26.8125C27.0611 10.5 27.2996 10.5988 27.4754 10.7746C27.6512 10.9504 27.75 11.1889 27.75 11.4375C27.75 11.6861 27.6512 11.9246 27.4754 12.1004C27.2996 12.2762 27.0611 12.375 26.8125 12.375H24.7485V14.436C24.7485 14.6846 24.6497 14.9231 24.4739 15.0989C24.2981 15.2747 24.0596 15.3735 23.811 15.3735C23.5624 15.3735 23.3239 15.2747 23.1481 15.0989C22.9723 14.9231 22.8735 14.6846 22.8735 14.436V12.375H20.8125C20.5639 12.375 20.3254 12.2762 20.1496 12.1004C19.9738 11.9246 19.875 11.6861 19.875 11.4375C19.875 11.1889 19.9738 10.9504 20.1496 10.7746C20.3254 10.5988 20.5639 10.5 20.8125 10.5H22.8735V8.436C22.8735 7.9185 23.2935 7.4985 23.811 7.4985ZM34.8562 26.25C34.8562 30.8062 31.1625 34.5 26.6062 34.5C22.05 34.5 18.3562 30.8062 18.3562 26.25C18.3562 21.6938 22.05 18 26.6062 18C31.1625 18 34.8562 21.6938 34.8562 26.25ZM27.3562 21C27.3562 20.8011 27.2772 20.6103 27.1366 20.4697C26.9959 20.329 26.8052 20.25 26.6062 20.25C26.4073 20.25 26.2166 20.329 26.0759 20.4697C25.9353 20.6103 25.8562 20.8011 25.8562 21V25.5H21.3562C21.1573 25.5 20.9666 25.579 20.8259 25.7197C20.6853 25.8603 20.6062 26.0511 20.6062 26.25C20.6062 26.4489 20.6853 26.6397 20.8259 26.7803C20.9666 26.921 21.1573 27 21.3562 27H25.8562V31.5C25.8562 31.6989 25.9353 31.8897 26.0759 32.0303C26.2166 32.171 26.4073 32.25 26.6062 32.25C26.8052 32.25 26.9959 32.171 27.1366 32.0303C27.2772 31.8897 27.3562 31.6989 27.3562 31.5V27H31.8562C32.0552 27 32.2459 26.921 32.3866 26.7803C32.5272 26.6397 32.6062 26.4489 32.6062 26.25C32.6062 26.0511 32.5272 25.8603 32.3866 25.7197C32.2459 25.579 32.0552 25.5 31.8562 25.5H27.3562V21Z" fill="#472B97"/>
</svg>
