<svg width="20" height="21" viewBox="0 0 20 21" fill="none" xmlns="http://www.w3.org/2000/svg">
<path d="M9.58317 18.6243C4.87484 18.6243 1.0415 14.791 1.0415 10.0827C1.0415 5.37435 4.87484 1.54102 9.58317 1.54102C14.2915 1.54102 18.1248 5.37435 18.1248 10.0827C18.1248 14.791 14.2915 18.6243 9.58317 18.6243ZM9.58317 2.79102C5.55817 2.79102 2.2915 6.06602 2.2915 10.0827C2.2915 14.0993 5.55817 17.3743 9.58317 17.3743C13.6082 17.3743 16.8748 14.0993 16.8748 10.0827C16.8748 6.06602 13.6082 2.79102 9.58317 2.79102Z" fill="#472B97"/>
<path d="M18.3335 19.4576C18.1752 19.4576 18.0169 19.3992 17.8919 19.2742L16.2252 17.6076C15.9835 17.3659 15.9835 16.9659 16.2252 16.7242C16.4669 16.4826 16.8669 16.4826 17.1085 16.7242L18.7752 18.3909C19.0169 18.6326 19.0169 19.0326 18.7752 19.2742C18.6502 19.3992 18.4919 19.4576 18.3335 19.4576Z" fill="#472B97"/>
</svg>
