<svg width="32" height="32" viewBox="0 0 32 32" fill="none" xmlns="http://www.w3.org/2000/svg">
<rect width="32" height="32" rx="16" fill="#EEEEEE" fill-opacity="0.2"/>
<path d="M16 19.75C13.93 19.75 12.25 18.07 12.25 16C12.25 13.93 13.93 12.25 16 12.25C18.07 12.25 19.75 13.93 19.75 16C19.75 18.07 18.07 19.75 16 19.75ZM16 13.75C14.76 13.75 13.75 14.76 13.75 16C13.75 17.24 14.76 18.25 16 18.25C17.24 18.25 18.25 17.24 18.25 16C18.25 14.76 17.24 13.75 16 13.75Z" fill="#1A1A1A"/>
<path d="M19.21 26.1903C19 26.1903 18.79 26.1603 18.58 26.1103C17.96 25.9403 17.44 25.5503 17.11 25.0003L16.99 24.8003C16.4 23.7803 15.59 23.7803 15 24.8003L14.89 24.9903C14.56 25.5503 14.04 25.9503 13.42 26.1103C12.79 26.2803 12.14 26.1903 11.59 25.8603L9.87 24.8703C9.26 24.5203 8.82 23.9503 8.63 23.2603C8.45 22.5703 8.54 21.8603 8.89 21.2503C9.18 20.7403 9.26 20.2803 9.09 19.9903C8.92 19.7003 8.49 19.5303 7.9 19.5303C6.44 19.5303 5.25 18.3403 5.25 16.8803V15.1203C5.25 13.6603 6.44 12.4703 7.9 12.4703C8.49 12.4703 8.92 12.3003 9.09 12.0103C9.26 11.7203 9.19 11.2603 8.89 10.7503C8.54 10.1403 8.45 9.42029 8.63 8.74029C8.81 8.05029 9.25 7.48029 9.87 7.13029L11.6 6.14029C12.73 5.47029 14.22 5.86029 14.9 7.01029L15.02 7.21029C15.61 8.23029 16.42 8.23029 17.01 7.21029L17.12 7.02029C17.8 5.86029 19.29 5.47029 20.43 6.15029L22.15 7.14029C22.76 7.49029 23.2 8.06029 23.39 8.75029C23.57 9.44029 23.48 10.1503 23.13 10.7603C22.84 11.2703 22.76 11.7303 22.93 12.0203C23.1 12.3103 23.53 12.4803 24.12 12.4803C25.58 12.4803 26.77 13.6703 26.77 15.1303V16.8903C26.77 18.3503 25.58 19.5403 24.12 19.5403C23.53 19.5403 23.1 19.7103 22.93 20.0003C22.76 20.2903 22.83 20.7503 23.13 21.2603C23.48 21.8703 23.58 22.5903 23.39 23.2703C23.21 23.9603 22.77 24.5303 22.15 24.8803L20.42 25.8703C20.04 26.0803 19.63 26.1903 19.21 26.1903ZM16 22.4903C16.89 22.4903 17.72 23.0503 18.29 24.0403L18.4 24.2303C18.52 24.4403 18.72 24.5903 18.96 24.6503C19.2 24.7103 19.44 24.6803 19.64 24.5603L21.37 23.5603C21.63 23.4103 21.83 23.1603 21.91 22.8603C21.99 22.5603 21.95 22.2503 21.8 21.9903C21.23 21.0103 21.16 20.0003 21.6 19.2303C22.04 18.4603 22.95 18.0203 24.09 18.0203C24.73 18.0203 25.24 17.5103 25.24 16.8703V15.1103C25.24 14.4803 24.73 13.9603 24.09 13.9603C22.95 13.9603 22.04 13.5203 21.6 12.7503C21.16 11.9803 21.23 10.9703 21.8 9.99029C21.95 9.73029 21.99 9.42029 21.91 9.12029C21.83 8.82029 21.64 8.58029 21.38 8.42029L19.65 7.43029C19.22 7.17029 18.65 7.32029 18.39 7.76029L18.28 7.95029C17.71 8.94029 16.88 9.50029 15.99 9.50029C15.1 9.50029 14.27 8.94029 13.7 7.95029L13.59 7.75029C13.34 7.33029 12.78 7.18029 12.35 7.43029L10.62 8.43029C10.36 8.58029 10.16 8.83029 10.08 9.13029C10 9.43029 10.04 9.74029 10.19 10.0003C10.76 10.9803 10.83 11.9903 10.39 12.7603C9.95 13.5303 9.04 13.9703 7.9 13.9703C7.26 13.9703 6.75 14.4803 6.75 15.1203V16.8803C6.75 17.5103 7.26 18.0303 7.9 18.0303C9.04 18.0303 9.95 18.4703 10.39 19.2403C10.83 20.0103 10.76 21.0203 10.19 22.0003C10.04 22.2603 10 22.5703 10.08 22.8703C10.16 23.1703 10.35 23.4103 10.61 23.5703L12.34 24.5603C12.55 24.6903 12.8 24.7203 13.03 24.6603C13.27 24.6003 13.47 24.4403 13.6 24.2303L13.71 24.0403C14.28 23.0603 15.11 22.4903 16 22.4903Z" fill="#1A1A1A"/>
</svg>
