<svg width="12" height="12" viewBox="0 0 12 12" fill="none" xmlns="http://www.w3.org/2000/svg">
<path d="M6 6.875C5.795 6.875 5.625 6.705 5.625 6.5V3.875C5.625 3.67 5.795 3.5 6 3.5C6.205 3.5 6.375 3.67 6.375 3.875V6.5C6.375 6.705 6.205 6.875 6 6.875Z" fill="#D51515"/>
<path d="M6 8.62462C5.865 8.62462 5.73999 8.57463 5.64499 8.47963C5.59999 8.42963 5.565 8.37462 5.535 8.31462C5.51 8.25462 5.5 8.18962 5.5 8.12462C5.5 7.99462 5.55499 7.86461 5.64499 7.76961C5.82999 7.58461 6.17001 7.58461 6.35501 7.76961C6.44501 7.86461 6.5 7.99462 6.5 8.12462C6.5 8.18962 6.48499 8.25462 6.45999 8.31462C6.43499 8.37462 6.40001 8.42963 6.35501 8.47963C6.26001 8.57463 6.135 8.62462 6 8.62462Z" fill="#D51515"/>
<path d="M6.00009 11.3755C5.66509 11.3755 5.32509 11.2905 5.02509 11.1155L2.05508 9.40053C1.45508 9.05053 1.08008 8.40553 1.08008 7.71053V4.29055C1.08008 3.59555 1.45508 2.95054 2.05508 2.60054L5.02509 0.885547C5.62509 0.535547 6.3701 0.535547 6.9751 0.885547L9.9451 2.60054C10.5451 2.95054 10.9201 3.59555 10.9201 4.29055V7.71053C10.9201 8.40553 10.5451 9.05053 9.9451 9.40053L6.9751 11.1155C6.6751 11.2905 6.33509 11.3755 6.00009 11.3755ZM6.00009 1.37554C5.79509 1.37554 5.58509 1.43054 5.40009 1.53554L2.43008 3.25054C2.06008 3.46554 1.83008 3.86055 1.83008 4.29055V7.71053C1.83008 8.13553 2.06008 8.53554 2.43008 8.75054L5.40009 10.4655C5.77009 10.6805 6.23009 10.6805 6.59509 10.4655L9.56509 8.75054C9.93509 8.53554 10.1651 8.14053 10.1651 7.71053V4.29055C10.1651 3.86555 9.93509 3.46554 9.56509 3.25054L6.59509 1.53554C6.41509 1.43054 6.20509 1.37554 6.00009 1.37554Z" fill="#D51515"/>
</svg>
